<?xml version="1.0" encoding="utf-8"?>
<!-- Svg Vector Icons : http://www.onlinewebfonts.com/icon -->
<!DOCTYPE svg PUBLIC "-//W3C//DTD SVG 1.1//EN" "http://www.w3.org/Graphics/SVG/1.1/DTD/svg11.dtd">
<svg version="1.1" xmlns="http://www.w3.org/2000/svg" xmlns:xlink="http://www.w3.org/1999/xlink" x="0px" y="0px" viewBox="0 0 256 256" enable-background="new 0 0 256 256" xml:space="preserve">
<metadata> Svg Vector Icons : http://www.onlinewebfonts.com/icon </metadata>
<g><g><g><path fill="#000000" d="M67.9,10.6c-3,1.1-5.9,3.4-7.5,5.8c-2.8,4.2-3,5.6-2.8,21.9l0.1,14.7l1.3,2.7c1.5,3.2,4.7,6.3,7.9,7.7c1.7,0.8,3.2,1.1,6.1,1.1c3.4,0,4.2-0.2,7.1-1.6c3.8-1.9,6.4-4.9,7.8-8.8c0.8-2.2,0.9-4.2,0.9-17.3V22.1l-1.4-3c-1.5-3.3-4.2-6.2-7.5-7.8C77.2,9.9,70.6,9.6,67.9,10.6z"/><path fill="#000000" d="M178.7,10.3c-4.4,1.4-7.8,4.5-9.9,8.9l-1.3,2.9l-0.1,13c-0.2,14.4,0.1,18,2.2,21.7c1.5,2.9,3.8,4.9,7.3,6.5c3.5,1.7,9.1,1.8,12.5,0.2c3.2-1.4,6.3-4.6,7.9-7.7l1.3-2.7V37.3V21.6l-1.2-2.7c-2.7-5.7-7.3-8.7-13.5-8.9C181.6,10,179.3,10.1,178.7,10.3z"/><path fill="#000000" d="M37.9,33.9c-4.9,1.3-8.2,4.2-10.4,8.9l-1.2,2.6l-0.1,93c-0.1,83.9,0,93.3,0.6,95.9c1.4,5.3,5.4,9.4,10.8,10.9c2.3,0.7,11.4,0.8,91.6,0.7l88.9-0.1l3.2-1.6c3.6-1.8,5.7-3.9,7.5-7.7l1.2-2.6v-94.2V45.4l-1.6-3.2c-1.8-3.6-4-5.7-7.7-7.4c-2.2-1.1-3.5-1.3-8.2-1.4l-5.6-0.2l-0.1,13.7l-0.1,13.8l-1.3,2.7c-1.7,3.4-4.6,6.4-8,8c-2.5,1.2-3,1.2-12.7,1.4c-13.7,0.2-17.1-0.7-21.3-5.7c-3.4-4-3.7-5.4-3.7-20.5V33.3h-31.5H96.6v13.4c0,12.2-0.1,13.5-1,15.9c-1.4,3.6-4.2,6.6-8,8.5l-3.2,1.6H73c-11.4,0-11.5,0-14.1-1.2c-3.3-1.6-6.3-4.5-8-8l-1.3-2.7L49.5,47l-0.1-13.7l-4.6,0C42.2,33.3,39.1,33.6,37.9,33.9z M96.6,108.2v19.6H73H49.4v-19.6V88.6H73h23.6L96.6,108.2L96.6,108.2z M151.9,108.2v19.6h-23.8h-23.8v-19.6V88.6h23.8h23.8V108.2z M206.8,108.2v19.6h-23.6h-23.6v-19.6V88.6h23.6h23.6V108.2z M96.6,155.4V175H73H49.4v-19.6v-19.6H73h23.6L96.6,155.4L96.6,155.4z M151.9,155.4V175h-23.8h-23.8v-19.6v-19.6h23.8h23.8V155.4z M206.8,155.4V175h-23.6h-23.6v-19.6v-19.6h23.6h23.6V155.4z M96.6,202.9v19.8l-23.5-0.1l-23.5-0.1l-0.1-19.7l-0.1-19.7H73h23.6L96.6,202.9L96.6,202.9z M151.8,202.7l-0.1,19.7h-23.6h-23.6l-0.1-19.7l-0.1-19.7h23.8h23.8L151.8,202.7z M206.7,202.7l-0.1,19.7l-23.5,0.1l-23.5,0.1v-19.8v-19.8h23.6h23.6L206.7,202.7z"/></g></g></g>
</svg>