<?xml version="1.0" encoding="utf-8"?>
<!-- Svg Vector Icons : http://www.onlinewebfonts.com/icon -->
<!DOCTYPE svg PUBLIC "-//W3C//DTD SVG 1.1//EN" "http://www.w3.org/Graphics/SVG/1.1/DTD/svg11.dtd">
<svg version="1.1" xmlns="http://www.w3.org/2000/svg" xmlns:xlink="http://www.w3.org/1999/xlink" x="0px" y="0px" viewBox="0 0 256 256" enable-background="new 0 0 256 256" xml:space="preserve">
<metadata> Svg Vector Icons : http://www.onlinewebfonts.com/icon </metadata>
<g><g><g><path fill="#000000" d="M89.7,10.9c-0.5,1-0.5,1.9,0,4.4c0.4,1.7,0.9,3.4,1.1,3.6c0.4,0.5-3.6,4.7-4.4,4.7c-0.3,0-1.3,0.8-2.1,1.8c-1.3,1.4-1.7,2.3-1.7,4.1c0,1.9-0.4,2.8-2.6,5.5c-2.9,3.4-6.6,7-8.8,8.5c-1.1,0.7-1.4,1.4-1.6,4c-0.3,3.8,0.5,5.5,2.8,6.4c2.7,0.9,4.1,0.7,5.7-1.1c1.8-1.9,8.1-3.8,13.5-4.3c3.8-0.3,3.7-0.3,1.5,6.1c-4.3,12.4-9.3,19.7-16.2,23.7c-4.4,2.6-5.5,4-6,7.4c-0.3,2.4-0.5,2.8-1.3,2.5c-2.9-1.1-3.9-0.9-6.6,1c-3.1,2.3-3.1,2.3-3.6,7.1c-0.2,2-0.5,3.6-0.8,3.5c-0.2,0-2,0.4-4,0.9c-5.1,1.4-6.8,3.2-6.6,7.1c0.1,1.6,0.9,5.9,1.8,9.7c0.9,3.7,1.7,7.7,1.7,8.7c0,1.3,0.4,2.3,1.5,3.3c1.5,1.6,2.9,4.5,2.9,6.4c0,0.6,0.3,1.4,0.6,1.7c0.4,0.4,0.8,1.6,1,2.7c0.3,1.7,0.6,2.1,2.1,2.5c1.4,0.4,2,0.3,3.4-0.7c2-1.5,2.9-5.3,1.5-7.4c-0.4-0.7-1-2-1.2-3c-0.3-1.4-0.7-1.8-1.7-1.8c-2.3,0-3-0.6-3-2.4c0-0.9-0.5-2.7-1-3.9c-1.4-2.7-3.6-12.5-3.2-13.7c0.2-0.5,1-0.9,1.9-0.9c1.2,0,1.8,0.4,2.5,1.9c0.4,1,1,2.8,1.2,4c0.9,5.2,2.1,10.2,2.6,10.4c0.8,0.5,2.6-1.5,4.4-4.9c1.8-3.6,1.8-5.4-0.3-7c-1.1-0.8-1.1-1-0.4-1.8s1.4-0.7,6.1,0.1l5.3,0.9l1.4,2.8c3.2,6.6,14.3,21.1,23.5,30.8c2,2.1,4.1,4.5,4.6,5.3c0.9,1.4,0.9,1.6-0.4,4.9c-0.8,1.9-1.8,5.5-2.4,8c-0.9,4.5-0.9,4.7,0.2,9.6c1.4,6.4,2.1,11.3,2.6,18c0.2,2.9,0.8,7.2,1.4,9.6c0.8,3.5,0.9,5.5,0.7,9.7l-0.4,5.3l-4.9,7.3c-2.7,4-5.5,7.8-6.3,8.5c-2.1,1.9-5.8,3.1-11,3.6c-4.6,0.4-4.7,0.4-6.8,2.8c-1.2,1.3-2.5,3.1-2.9,3.9c-0.8,1.5-0.8,1.5,1.2,2.4c1.7,0.7,3.3,0.8,8.3,0.5c6-0.3,6.8-0.5,7.4-2.2c0.3-0.7,4.6-0.5,5.9,0.3c1.3,0.8,2.9,0.1,3.2-1.5c0.1-0.5,0.7-1.5,1.2-2.1c0.5-0.6,1.4-1.7,1.8-2.5c1.8-3.4,8.6-12.5,12.4-16.5c5-5.2,5.1-5.4,5.1-18.1c0.1-8,0.2-8.7,1.5-12c1.4-3.1,2.4-4.3,2.4-2.9c0,0.6,5.7,7.1,10.1,11.7c2.8,2.9,6.7,8.3,7.9,11c1.1,2.5,0.8,5.3-1.3,11.7c-2.6,8.2-4.3,10.4-10.5,13.5c-6.3,3.1-8.5,5.6-6.6,7.5c0.7,0.7,1.8,0.8,6.7,0.4c5.8-0.4,5.9-0.4,6.4-2c0.5-1.4,0.8-1.6,3.1-1.6c3.2,0,4.7-1.2,5.5-4.1c0.3-1.2,1.4-4.3,2.3-7c1.6-4.8,1.9-5.9,3.9-16.5c1.6-8.7,1.7-8.5-2.6-12.7c-4.1-4-8.3-10.7-8.7-14.1c-0.3-2,0.1-2.8,4.6-9.7c2.6-4.2,6.6-11,8.9-15.1c3.3-6.1,4.3-7.6,5.3-7.6c1.2,0,1.9,0.4,7.4,4.2c1.9,1.4,3.4,2.1,3.5,1.7c0.2-0.4,0.5-0.4,1.4,0.1c1.4,0.7,2.5,0.8,2.1,0.1c-0.2-0.3,0.5-0.4,1.6-0.2c1.3,0.2,1.9,0.1,1.9-0.3c0-0.3,0.9-0.6,1.9-0.6c1.2,0,1.9-0.3,1.8-0.7c-0.1-0.3,0.5-0.7,1.5-0.7c1.4-0.1,1.8,0.3,3,2.4c0.7,1.4,1,2.2,0.6,2c-0.4-0.3-0.1,0.6,0.7,2c0.8,1.3,1.6,3,1.8,3.7c0.3,1.2,0.3,1.3-1.8,0.9c-1.2-0.2-3-0.7-4.2-1l-2.1-0.7l0.8,1.3c0.8,1.2,0.8,1.3-2.4,1.6c-5.4,0.6-7.5,3.3-2.3,3.1c3.6-0.2,4.1-0.1,5.3,0.8c1,0.8,0.8,0.8-2,0.7c-5.2-0.2-8.8,0.1-8.8,0.7c0,0.4,1.2,0.5,3.4,0.4c2.9-0.2,3.5-0.1,3.6,0.7c0.2,0.8-0.2,1-1.5,1c-0.9,0-2.6,0.4-3.7,0.9c-1.8,0.8-1.9,0.9-0.9,1.3c0.9,0.4,0.8,0.5-0.7,0.5c-1.2,0.1-2.5,0.7-3.7,1.8c-2.1,1.8-2.5,2.9-0.9,2.3c0.9-0.3,0.9-0.3-0.1,0.8c-1.1,1.3-3.7,8.1-3.7,9.8c0,0.6,0.9-0.6,2.1-2.7c1.6-2.9,2.8-4.3,5-5.9c3.5-2.5,6.1-3.5,6.1-2.4c0,0.4-0.8,1-1.8,1.3c-2.4,0.8-4.6,3.2-7.4,7.9l-2.2,3.6l3.1-2c1.7-1.1,4.9-2.5,7.3-3.2c2.3-0.7,4.7-1.5,5.4-1.9c0.7-0.4,2-0.5,3-0.3c0.9,0.2,2.5,0.1,3.5-0.2c1.9-0.5,2-0.3,1.3,1.7c-0.3,0.9-1.6,1.8-4.4,2.9c-2.1,0.9-4.4,2.2-5.1,3c-0.7,0.8-1,1.3-0.7,1.2c0.3-0.2,1.2-0.5,1.9-0.9c1.2-0.5,3.7-1.1,9.1-2.1c2-0.4,7.4-4.8,7.7-6.3c0.5-2.3,1.4-3.7,2.7-4.3c0.8-0.3,1.2-0.9,1-1.3c-0.2-0.4,0.1-1.2,0.5-1.6c1.4-1.3,2.1-3.7,2.2-6.7c0.1-2.3,0.3-2.8,1.3-3.4l1.3-0.6l-1.4-0.9c-1.5-0.9-3.2-3.6-1.9-2.8c0.4,0.3,1.2,0.8,1.7,1.3c1.5,1.3,1.1,0.1-1-3.2c-2.2-3.5-2.3-4.1-0.8-3.7c1.8,0.5,1-0.8-1.6-2.5c-4.3-2.9-4-5.2,0.3-2.5c2.4,1.5,2.8,1.1,1-1c-1.4-1.6-1.8-2.6-0.9-2.1c0.3,0.2,0.6-0.2,0.8-0.8c0.2-0.7,0-1.1-0.5-1.1c-1.4,0-5.2-2.2-4.9-2.7c0.2-0.3-0.1-0.5-0.7-0.5s-1.4-0.3-1.8-0.5c-0.7-0.4-0.4-0.7,1-1.3l1.8-0.8l-2.3-0.4c-2.5-0.4-2.9-1.2-1-1.8c0.9-0.3,0.6-0.5-1.8-0.8c-2.7-0.4-4.1-0.8-9.2-3c-1.2-0.5-1.8-1.2-1.8-1.9c0-1.4-0.4-1.4-2.2,0c-1.8,1.4-3.3,1.4-3.3-0.1c0-1-0.1-1-2.3,0.3c-1.3,0.8-4.6,2.5-7.3,3.8c-2.7,1.3-5.7,2.9-6.6,3.5c-0.9,0.7-2,1.2-2.5,1.2c-1.4,0-5.2-4.3-7.7-8.8c-3.2-5.5-6.3-9.4-11.2-13.8c-3.7-3.3-12.5-13.8-14.1-16.8c-0.4-0.7-0.5-2.1-0.3-3.4c0.3-2,0.4-2.1,1.4-1.6c1,0.5,1,0.4,0.7-0.7c-0.4-1.4-0.5-1.8-0.3-6.6c0.1-2,0.3-3.1,0.7-2.9c0.3,0.2,0.5-0.1,0.5-0.5c0-1.2,1.1-1.1,2.7,0.2c1.8,1.4,2.4,1.4,1.9,0.1c-0.2-0.6-0.1-1.2,0.2-1.4c0.6-0.4,0.2-3.1-0.7-4.1c-0.5-0.7-0.4-0.7,0.4-0.4c1.2,0.4,1.2-0.2,0.1-2.7c-1.2-2.7-1-3.1,0.7-2l1.5,1l-1.3-1.6c-0.7-0.9-1.2-1.9-1.2-2.2c0-0.3-0.6-1.5-1.4-2.6c-1.4-2-1.8-3.5-0.9-2.9c0.3,0.2,0.5-0.2,0.5-0.7c0.1-1.9,0.7-5.1,1.1-5.1c0.8,0.1,2.3,1.6,3,3.3c0.7,1.5,0.8,1.6,0.9,0.6c0-1.7-1.4-5-2.9-6.6c-1.1-1.2-1.1-1.3-0.2-0.9c1.1,0.4,1.1,0.4,0.1-0.8c-1-1.2-1-1.2,0.5-0.6c2.6,1,2.8,0.7,0.8-1.5c-1.1-1.1-2.3-2.6-2.6-3.3c-0.6-1.2-0.5-1.3,0.6-1.2c0.7,0.1,1.8,0.1,2.4,0.1c0.9-0.1,0.8-0.3-0.7-1.2c-1-0.5-2.1-1.8-2.6-2.6s-1.6-2.3-2.5-3c-1.9-1.6-2.1-2.3-0.5-1.8c2,0.6,1.2-0.7-2-3.4c-4-3.3-7.8-7-6.9-6.5c1.4,0.8-0.4-1.8-2.4-3.4c-1-0.9-1.9-1.8-1.9-2c0-0.5-2.4-3.6-4.4-5.7c-0.9-1-1.1-1.7-1-4c0.2-1.8,0-2.7-0.3-2.6c-0.3,0.2-1.9,0.7-3.5,1.2c-2.7,0.8-3.1,0.8-4.4,0.1c-0.8-0.4-2.3-1-3.2-1.2c-1.8-0.4-7.5-6-8.4-8.2C90.3,9.7,90.3,9.8,89.7,10.9z M66.8,97.7c-1.2,0.3-1.6-0.2-1.2-1.4c0.4-0.9,0.4-0.9,1.2,0.1C67.6,97.4,67.6,97.5,66.8,97.7z"/></g></g></g>
</svg>