<?xml version="1.0" encoding="utf-8"?>
<!-- Svg Vector Icons : http://www.onlinewebfonts.com/icon -->
<!DOCTYPE svg PUBLIC "-//W3C//DTD SVG 1.1//EN" "http://www.w3.org/Graphics/SVG/1.1/DTD/svg11.dtd">
<svg version="1.1" xmlns="http://www.w3.org/2000/svg" xmlns:xlink="http://www.w3.org/1999/xlink" x="0px" y="0px" viewBox="0 0 256 256" enable-background="new 0 0 256 256" xml:space="preserve">
<metadata> Svg Vector Icons : http://www.onlinewebfonts.com/icon </metadata>
<g><g><path fill="#000000" d="M216.6,216.7L216.6,216.7l-53.1,6.5l-1-8l53.5-6.6l-1.1-14.4c-0.3-3.6-3.5-6.4-7.1-6.1l-2.1,0.1l-51.8,9.5l-1.4-7.9l52-9.5l-2.2-14.1c-0.6-3.6-4-6.1-7.6-5.5l-2.2,0.3L142,172.1l-1.7-7.9l43.3-9.5l-2.9-12.4c-0.7-2.9-3.6-4.7-6.5-4L63.5,164.7c-45.7,36.1-30,81.3-30,81.3h191.6v-22.6c0-3.7-3-6.6-6.6-6.6L216.6,216.7L216.6,216.7z M93.1,10c20.1,0,36.4,16.3,36.4,36.4s-16.3,36.4-36.4,36.4S56.8,66.4,56.8,46.4S73,10,93.1,10L93.1,10z M117.4,80.7l15.2,60.7l-30.8,7.8L86.4,87.9c2.2,0.4,4.5,0.6,6.8,0.6C102.2,88.4,110.5,85.6,117.4,80.7z"/></g></g>
</svg>