<svg width="8" height="8" viewBox="0 0 8 8" fill="none" xmlns="http://www.w3.org/2000/svg">
<g clip-path="url(#clip0_265_15363)">
<path d="M7.43971 1.477L2.83337 6.083C2.8024 6.1141 2.7656 6.13877 2.72507 6.1556C2.68454 6.17243 2.64109 6.1811 2.59721 6.1811C2.55332 6.1811 2.50987 6.17243 2.46934 6.1556C2.42881 6.13877 2.39201 6.1141 2.36104 6.083L0.579707 4.3C0.548737 4.26891 0.511933 4.24424 0.471405 4.22741C0.430878 4.21057 0.387425 4.20191 0.34354 4.20191C0.299656 4.20191 0.256203 4.21057 0.215676 4.22741C0.175148 4.24424 0.138344 4.26891 0.107374 4.3C0.0762815 4.33097 0.0516107 4.36778 0.0347768 4.4083C0.0179429 4.44883 0.00927734 4.49228 0.00927734 4.53617C0.00927734 4.58005 0.0179429 4.62351 0.0347768 4.66403C0.0516107 4.70456 0.0762815 4.74137 0.107374 4.77234L1.88937 6.554C2.07736 6.74164 2.33211 6.84702 2.59771 6.84702C2.86331 6.84702 3.11806 6.74164 3.30604 6.554L7.91204 1.949C7.94308 1.91804 7.96771 1.88126 7.98452 1.84076C8.00132 1.80026 8.00997 1.75685 8.00997 1.713C8.00997 1.66916 8.00132 1.62574 7.98452 1.58525C7.96771 1.54475 7.94308 1.50797 7.91204 1.477C7.88107 1.44591 7.84427 1.42124 7.80374 1.40441C7.76321 1.38757 7.71976 1.37891 7.67587 1.37891C7.63199 1.37891 7.58854 1.38757 7.54801 1.40441C7.50748 1.42124 7.47068 1.44591 7.43971 1.477Z" fill="white"/>
</g>
<defs>
<clipPath id="clip0_265_15363">
<rect width="8" height="8" fill="white"/>
</clipPath>
</defs>
</svg>
