<svg width="14" height="8" viewBox="0 0 14 8" fill="none" xmlns="http://www.w3.org/2000/svg">
<path d="M1.40987 0H12.5899C12.7876 0.00082923 12.9807 0.060284 13.1447 0.170847C13.3087 0.281409 13.4362 0.438115 13.5111 0.621147C13.5861 0.804179 13.605 1.00532 13.5656 1.19913C13.5263 1.39294 13.4303 1.57073 13.2899 1.71L7.70987 7.28999C7.61691 7.38372 7.50631 7.45811 7.38445 7.50888C7.26259 7.55965 7.13188 7.58578 6.99987 7.58578C6.86786 7.58578 6.73715 7.55965 6.61529 7.50888C6.49343 7.45811 6.38283 7.38372 6.28987 7.28999L0.70987 1.71C0.569449 1.57073 0.473478 1.39294 0.434092 1.19913C0.394707 1.00532 0.413676 0.804179 0.488602 0.621147C0.563528 0.438115 0.691044 0.281409 0.855028 0.170847C1.01901 0.060284 1.2121 0.00082923 1.40987 0Z" fill="#646464"/>
</svg>
