<svg width="50" height="54" viewBox="0 0 50 54" fill="none" xmlns="http://www.w3.org/2000/svg">
<g filter="url(#filter0_d_135_3372)">
<rect x="5" y="4" width="40" height="44" rx="4" fill="#DCEFE9"/>
</g>
<path d="M26.78 33.2C25.8067 33.2 24.9333 32.9933 24.16 32.58C23.3867 32.1667 22.7467 31.56 22.24 30.76C21.7467 29.9467 21.4067 28.9667 21.22 27.82L21.58 28.38H20.18C19.9267 28.38 19.7133 28.3 19.54 28.14C19.3667 27.9667 19.28 27.7533 19.28 27.5C19.28 27.2467 19.3667 27.04 19.54 26.88C19.7133 26.7067 19.9267 26.62 20.18 26.62H21.48L21.12 27.1C21.0933 26.6867 21.08 26.2867 21.08 25.9C21.08 25.5133 21.1 25.14 21.14 24.78L21.5 25.26H20.18C19.9267 25.26 19.7133 25.18 19.54 25.02C19.3667 24.8467 19.28 24.6333 19.28 24.38C19.28 24.1267 19.3667 23.92 19.54 23.76C19.7133 23.5867 19.9267 23.5 20.18 23.5H21.7L21.22 24.08C21.4067 22.92 21.7467 21.94 22.24 21.14C22.7467 20.34 23.3867 19.7333 24.16 19.32C24.9333 18.9067 25.8067 18.7 26.78 18.7C27.3933 18.7 28 18.7933 28.6 18.98C29.2133 19.1667 29.7667 19.4733 30.26 19.9C30.46 20.0733 30.5867 20.2667 30.64 20.48C30.6933 20.6933 30.6867 20.9 30.62 21.1C30.5667 21.3 30.4667 21.4667 30.32 21.6C30.1867 21.72 30.0133 21.7867 29.8 21.8C29.6 21.8 29.3867 21.7133 29.16 21.54C28.8667 21.3133 28.5267 21.1467 28.14 21.04C27.7533 20.9333 27.36 20.88 26.96 20.88C26.44 20.88 25.9667 20.9933 25.54 21.22C25.1133 21.4333 24.7533 21.7733 24.46 22.24C24.18 22.6933 23.9667 23.28 23.82 24L23.44 23.5H26.16C26.4133 23.5 26.62 23.5867 26.78 23.76C26.9533 23.9333 27.04 24.14 27.04 24.38C27.04 24.62 26.9533 24.8267 26.78 25C26.62 25.1733 26.4133 25.26 26.16 25.26H23.22L23.68 24.82C23.6533 25.1267 23.64 25.48 23.64 25.88C23.64 26.2667 23.6533 26.6333 23.68 26.98L23.24 26.62H26.16C26.4133 26.62 26.62 26.7067 26.78 26.88C26.9533 27.0533 27.04 27.26 27.04 27.5C27.04 27.74 26.9533 27.9467 26.78 28.12C26.62 28.2933 26.4133 28.38 26.16 28.38H23.52L23.82 27.88C23.9667 28.6 24.18 29.1933 24.46 29.66C24.7533 30.1267 25.1133 30.4733 25.54 30.7C25.9667 30.9133 26.44 31.02 26.96 31.02C27.3733 31.02 27.7533 30.9733 28.1 30.88C28.46 30.7733 28.82 30.6 29.18 30.36C29.42 30.2 29.64 30.1267 29.84 30.14C30.04 30.14 30.2067 30.2067 30.34 30.34C30.4867 30.46 30.5867 30.6133 30.64 30.8C30.6933 30.9733 30.6933 31.1667 30.64 31.38C30.6 31.58 30.4867 31.7667 30.3 31.94C29.8467 32.3667 29.3 32.6867 28.66 32.9C28.0333 33.1 27.4067 33.2 26.78 33.2Z" fill="black"/>
<defs>
<filter id="filter0_d_135_3372" x="0" y="0" width="50" height="54" filterUnits="userSpaceOnUse" color-interpolation-filters="sRGB">
<feFlood flood-opacity="0" result="BackgroundImageFix"/>
<feColorMatrix in="SourceAlpha" type="matrix" values="0 0 0 0 0 0 0 0 0 0 0 0 0 0 0 0 0 0 127 0" result="hardAlpha"/>
<feOffset dy="1"/>
<feGaussianBlur stdDeviation="2.5"/>
<feComposite in2="hardAlpha" operator="out"/>
<feColorMatrix type="matrix" values="0 0 0 0 0 0 0 0 0 0 0 0 0 0 0 0 0 0 0.06 0"/>
<feBlend mode="normal" in2="BackgroundImageFix" result="effect1_dropShadow_135_3372"/>
<feBlend mode="normal" in="SourceGraphic" in2="effect1_dropShadow_135_3372" result="shape"/>
</filter>
</defs>
</svg>
