<svg width="28" height="28" viewBox="0 0 28 28" fill="none" xmlns="http://www.w3.org/2000/svg">
<path d="M14.0003 0.719727C6.66699 0.719727 0.666992 6.70639 0.666992 14.0798C0.666992 20.7464 5.54699 26.2798 11.9203 27.2798V17.9464H8.53366V14.0798H11.9203V11.1331C11.9203 7.78639 13.907 5.94639 16.9603 5.94639C18.4137 5.94639 19.9337 6.19973 19.9337 6.19973V9.49306H18.2537C16.6003 9.49306 16.0803 10.5197 16.0803 11.5731V14.0798H19.787L19.187 17.9464H16.0803V27.2798C19.2222 26.7835 22.0833 25.1804 24.1469 22.7598C26.2105 20.3392 27.3409 17.2606 27.3337 14.0798C27.3337 6.70639 21.3337 0.719727 14.0003 0.719727Z" fill="white"/>
</svg>
