<svg width="28" height="28" viewBox="0 0 28 28" fill="none" xmlns="http://www.w3.org/2000/svg">
<path d="M14.0003 0.666992C17.623 0.666992 18.075 0.680325 19.4963 0.746992C20.9163 0.813659 21.883 1.03633 22.7337 1.36699C23.6137 1.70566 24.355 2.16433 25.0963 2.90433C25.7743 3.57085 26.2989 4.37711 26.6337 5.26699C26.963 6.11632 27.187 7.08432 27.2537 8.50432C27.3163 9.92566 27.3337 10.3777 27.3337 14.0003C27.3337 17.623 27.3203 18.075 27.2537 19.4963C27.187 20.9163 26.963 21.883 26.6337 22.7337C26.2999 23.624 25.7752 24.4305 25.0963 25.0963C24.4296 25.7741 23.6234 26.2987 22.7337 26.6337C21.8843 26.963 20.9163 27.187 19.4963 27.2537C18.075 27.3163 17.623 27.3337 14.0003 27.3337C10.3777 27.3337 9.92566 27.3203 8.50432 27.2537C7.08432 27.187 6.11766 26.963 5.26699 26.6337C4.37676 26.2996 3.57036 25.7749 2.90433 25.0963C2.2262 24.4299 1.70157 23.6236 1.36699 22.7337C1.03633 21.8843 0.813659 20.9163 0.746992 19.4963C0.684325 18.075 0.666992 17.623 0.666992 14.0003C0.666992 10.3777 0.680325 9.92566 0.746992 8.50432C0.813659 7.08299 1.03633 6.11766 1.36699 5.26699C1.70064 4.37656 2.2254 3.57009 2.90433 2.90433C3.57055 2.22597 4.3769 1.7013 5.26699 1.36699C6.11766 1.03633 7.08299 0.813659 8.50432 0.746992C9.92566 0.684325 10.3777 0.666992 14.0003 0.666992ZM14.0003 7.33366C12.2322 7.33366 10.5365 8.03604 9.28628 9.28628C8.03604 10.5365 7.33366 12.2322 7.33366 14.0003C7.33366 15.7684 8.03604 17.4641 9.28628 18.7144C10.5365 19.9646 12.2322 20.667 14.0003 20.667C15.7684 20.667 17.4641 19.9646 18.7144 18.7144C19.9646 17.4641 20.667 15.7684 20.667 14.0003C20.667 12.2322 19.9646 10.5365 18.7144 9.28628C17.4641 8.03604 15.7684 7.33366 14.0003 7.33366ZM22.667 7.00033C22.667 6.5583 22.4914 6.13437 22.1788 5.82181C21.8663 5.50925 21.4424 5.33366 21.0003 5.33366C20.5583 5.33366 20.1344 5.50925 19.8218 5.82181C19.5093 6.13437 19.3337 6.5583 19.3337 7.00033C19.3337 7.44235 19.5093 7.86628 19.8218 8.17884C20.1344 8.4914 20.5583 8.66699 21.0003 8.66699C21.4424 8.66699 21.8663 8.4914 22.1788 8.17884C22.4914 7.86628 22.667 7.44235 22.667 7.00033ZM14.0003 10.0003C15.0612 10.0003 16.0786 10.4218 16.8288 11.1719C17.5789 11.922 18.0003 12.9395 18.0003 14.0003C18.0003 15.0612 17.5789 16.0786 16.8288 16.8288C16.0786 17.5789 15.0612 18.0003 14.0003 18.0003C12.9395 18.0003 11.922 17.5789 11.1719 16.8288C10.4218 16.0786 10.0003 15.0612 10.0003 14.0003C10.0003 12.9395 10.4218 11.922 11.1719 11.1719C11.922 10.4218 12.9395 10.0003 14.0003 10.0003Z" fill="white"/>
</svg>
