<svg width="70" height="70" viewBox="0 0 70 70" fill="none" xmlns="http://www.w3.org/2000/svg">
<circle cx="35" cy="35" r="35" fill="#00C489" fill-opacity="0.1"/>
<g clip-path="url(#clip0_128_2827)">
<path d="M36.2 27.8C35.8424 27.8 35.5112 27.908 35.228 28.076C34.9472 28.244 34.748 28.4456 34.5776 28.6136L30.9776 32.1332C30.26 32.7212 30.1196 32.7404 29.4224 32.1332L28.2248 30.998C28.0532 30.83 27.8528 30.626 27.5732 30.4616C27.2924 30.2924 26.96 30.2 26.6 30.2C26.2424 30.2 25.9136 30.2924 25.6316 30.4604C25.3532 30.626 25.1516 30.8276 24.98 30.9968L20.7896 35.1728C20.228 35.7056 21.0848 36.5732 21.6332 36.0248L25.826 31.8488C26.4908 31.2548 26.6828 31.2572 27.3812 31.8488L28.5788 32.9864C28.7504 33.1568 28.9508 33.3584 29.2304 33.524C29.5136 33.692 29.8448 33.8 30.2024 33.8C30.56 33.8 30.8912 33.692 31.1744 33.524C31.4504 33.356 31.6544 33.1568 31.8248 32.9864L35.4248 29.4668C36.056 28.8668 36.3824 28.8692 36.9776 29.4668L39.9692 32.4068C40.5368 32.9912 41.402 32.1152 40.8116 31.5548L37.82 28.6124C37.652 28.4444 37.4504 28.2428 37.172 28.0748C36.8888 27.9068 36.5576 27.7988 36.2 27.7988V27.8ZM47.6 24.2C46.7888 24.188 46.7888 25.412 47.6 25.4H51.2C51.5432 25.4 51.8 25.6568 51.8 26V51.2C51.8 51.5432 51.5432 51.8 51.2 51.8H26C25.6568 51.8 25.4 51.5432 25.4 51.2V47.6C25.412 46.7888 24.188 46.7888 24.2 47.6V51.2C24.2 52.1864 25.0136 53 26 53H51.2C52.1864 53 53 52.1864 53 51.2V26C53 25.0136 52.1864 24.2 51.2 24.2H47.6ZM24.8 21.8C23.15 21.8 21.8 23.15 21.8 24.8C21.8 26.45 23.15 27.8 24.8 27.8C26.45 27.8 27.8 26.45 27.8 24.8C27.8 23.15 26.45 21.8 24.8 21.8ZM24.8 23C25.8008 23 26.6 23.7992 26.6 24.8C26.6 25.8008 25.8008 26.6 24.8 26.6C23.7992 26.6 23 25.8008 23 24.8C23 23.7992 23.7992 23 24.8 23ZM21.2 39.8H41.6C41.9324 39.8 42.2 40.0676 42.2 40.4C42.2 40.7324 41.9324 41 41.6 41H21.2C20.8676 41 20.6 40.7324 20.6 40.4C20.6 40.0676 20.8676 39.8 21.2 39.8ZM18.8 17C17.8136 17 17 17.8136 17 18.8V44C17 44.9864 17.8136 45.8 18.8 45.8H44C44.9864 45.8 45.8 44.9864 45.8 44V18.8C45.8 17.8136 44.9864 17 44 17H18.8ZM18.8 18.2H44C44.3432 18.2 44.6 18.4568 44.6 18.8V44C44.6 44.3432 44.3432 44.6 44 44.6H18.8C18.4568 44.6 18.2 44.3432 18.2 44V18.8C18.2 18.4568 18.4568 18.2 18.8 18.2Z" fill="black"/>
</g>
<defs>
<clipPath id="clip0_128_2827">
<rect width="36" height="36" fill="white" transform="translate(17 17)"/>
</clipPath>
</defs>
</svg>
