<svg width="16" height="16" viewBox="0 0 16 16" fill="none" xmlns="http://www.w3.org/2000/svg">
<circle cx="8" cy="8" r="7.5" stroke="#00C489"/>
<g clip-path="url(#clip0_128_2834)">
<path d="M11.4392 5.47703L6.83289 10.083C6.80192 10.1141 6.76511 10.1388 6.72458 10.1556C6.68406 10.1725 6.6406 10.1811 6.59672 10.1811C6.55283 10.1811 6.50938 10.1725 6.46885 10.1556C6.42833 10.1388 6.39152 10.1141 6.36055 10.083L4.57922 8.30003C4.54825 8.26894 4.51144 8.24427 4.47092 8.22744C4.43039 8.2106 4.38694 8.20194 4.34305 8.20194C4.29917 8.20194 4.25571 8.2106 4.21519 8.22744C4.17466 8.24427 4.13786 8.26894 4.10689 8.30003C4.07579 8.331 4.05112 8.36781 4.03429 8.40834C4.01745 8.44886 4.00879 8.49232 4.00879 8.5362C4.00879 8.58008 4.01745 8.62354 4.03429 8.66406C4.05112 8.70459 4.07579 8.7414 4.10689 8.77237L5.88889 10.554C6.07687 10.7417 6.33162 10.847 6.59722 10.847C6.86282 10.847 7.11757 10.7417 7.30555 10.554L11.9116 5.94903C11.9426 5.91807 11.9672 5.88129 11.984 5.84079C12.0008 5.80029 12.0095 5.75688 12.0095 5.71303C12.0095 5.66919 12.0008 5.62577 11.984 5.58528C11.9672 5.54478 11.9426 5.508 11.9116 5.47703C11.8806 5.44594 11.8438 5.42127 11.8033 5.40444C11.7627 5.3876 11.7193 5.37894 11.6754 5.37894C11.6315 5.37894 11.588 5.3876 11.5475 5.40444C11.507 5.42127 11.4702 5.44594 11.4392 5.47703Z" fill="#00C489"/>
</g>
<defs>
<clipPath id="clip0_128_2834">
<rect width="8" height="8" fill="white" transform="translate(4 4)"/>
</clipPath>
</defs>
</svg>
