<svg width="32" height="32" viewBox="0 0 32 32" fill="none" xmlns="http://www.w3.org/2000/svg">
<path d="M27.134 10.2881C27.15 10.5341 27.15 10.7821 27.15 11.0301C27.15 18.6221 21.372 27.3761 10.806 27.3761V27.3721C7.68426 27.3765 4.62724 26.4822 2 24.7961C5.03681 25.161 8.09422 24.3049 10.5 22.4161C9.30131 22.3932 8.13973 21.9964 7.17764 21.281C6.21555 20.5656 5.50104 19.5675 5.134 18.4261C5.996 18.5921 6.884 18.5581 7.728 18.3261C6.42825 18.0635 5.25934 17.3594 4.41947 16.3333C3.57961 15.3072 3.1205 14.0221 3.12 12.6961V12.6241C3.92 13.0681 4.814 13.3141 5.728 13.3441C4.51116 12.5316 3.64971 11.2859 3.31902 9.86054C2.98833 8.43522 3.21325 6.93744 3.948 5.67212C5.3904 7.44663 7.18995 8.89786 9.22977 9.93155C11.2696 10.9652 13.504 11.5583 15.788 11.6721C15.5007 10.4402 15.6278 9.14792 16.1496 7.99559C16.6714 6.84326 17.5588 5.89524 18.6741 5.29848C19.7895 4.70173 21.0706 4.48956 22.3188 4.69488C23.567 4.9002 24.7126 5.51153 25.578 6.43412C26.8644 6.18034 28.0981 5.7089 29.226 5.04012C28.7972 6.36957 27.9003 7.49814 26.702 8.21612C27.8405 8.08196 28.9522 7.77721 30 7.31212C29.2293 8.46671 28.2588 9.4745 27.134 10.2881Z" fill="white"/>
</svg>
