<svg width="80" height="41" viewBox="0 0 80 41" fill="none" xmlns="http://www.w3.org/2000/svg">
<path d="M21.728 40.504C19.04 40.504 16.632 39.9253 14.504 38.768C12.376 37.6107 10.6213 35.8933 9.24 33.616C7.896 31.3387 6.98133 28.576 6.496 25.328L7.336 26.616H2.856C2.296 26.616 1.81067 26.4293 1.4 26.056C0.989333 25.6453 0.784 25.1413 0.784 24.544C0.784 23.9467 0.989333 23.4613 1.4 23.088C1.81067 22.7147 2.296 22.528 2.856 22.528H7.112L6.272 23.592C6.16 22.472 6.104 21.3333 6.104 20.176C6.14133 18.9813 6.19733 17.88 6.272 16.872L7.168 17.936H2.856C2.296 17.936 1.81067 17.7493 1.4 17.376C0.989333 16.9653 0.784 16.48 0.784 15.92C0.784 15.3227 0.989333 14.8373 1.4 14.464C1.81067 14.0533 2.296 13.848 2.856 13.848H7.616L6.496 15.192C6.98133 11.9067 7.896 9.144 9.24 6.904C10.6213 4.62667 12.376 2.90933 14.504 1.752C16.632 0.594664 19.04 0.0159974 21.728 0.0159974C23.5947 0.0159974 25.3867 0.314665 27.104 0.911999C28.8213 1.472 30.3707 2.424 31.752 3.768C32.2 4.17867 32.48 4.62666 32.592 5.112C32.704 5.59733 32.6853 6.08267 32.536 6.568C32.3867 7.016 32.144 7.37067 31.808 7.632C31.472 7.89333 31.0613 8.024 30.576 8.024C30.0907 8.024 29.5867 7.8 29.064 7.352C28.1307 6.53067 27.0667 5.93333 25.872 5.56C24.6773 5.18667 23.4267 5 22.12 5C20.4773 5 18.984 5.35467 17.64 6.064C16.296 6.77333 15.176 7.87467 14.28 9.368C13.4213 10.8613 12.7867 12.728 12.376 14.968L11.368 13.848H19.768C20.3653 13.848 20.8507 14.0533 21.224 14.464C21.6347 14.8747 21.84 15.36 21.84 15.92C21.84 16.48 21.6347 16.9653 21.224 17.376C20.8507 17.7493 20.3653 17.936 19.768 17.936H10.976L12.096 16.928C11.984 17.824 11.928 18.8693 11.928 20.064C11.928 21.2587 11.984 22.3787 12.096 23.424L10.976 22.528H19.768C20.3653 22.528 20.8507 22.7333 21.224 23.144C21.6347 23.5173 21.84 23.984 21.84 24.544C21.84 25.104 21.6347 25.5893 21.224 26C20.8507 26.4107 20.3653 26.616 19.768 26.616H11.648L12.376 25.496C12.7867 27.736 13.4213 29.6213 14.28 31.152C15.176 32.6453 16.296 33.7467 17.64 34.456C18.984 35.1653 20.4773 35.52 22.12 35.52C23.464 35.52 24.696 35.352 25.816 35.016C26.936 34.6427 28.0373 34.0267 29.12 33.168C29.68 32.7573 30.184 32.552 30.632 32.552C31.1173 32.5147 31.528 32.6453 31.864 32.944C32.2 33.2053 32.424 33.56 32.536 34.008C32.6853 34.4187 32.704 34.8667 32.592 35.352C32.5173 35.8 32.256 36.2293 31.808 36.64C30.5387 37.984 29.008 38.9733 27.216 39.608C25.424 40.2053 23.5947 40.504 21.728 40.504ZM65.1438 40.504C60.5518 40.504 57.0424 38.768 54.6158 35.296C52.2264 31.7867 51.0318 26.7653 51.0318 20.232C51.0318 15.7893 51.5731 12.0747 52.6558 9.088C53.7384 6.10133 55.3251 3.84266 57.4158 2.312C59.5064 0.781331 62.0824 0.0159974 65.1438 0.0159974C69.7731 0.0159974 73.2824 1.73333 75.6718 5.168C78.0611 8.56533 79.2558 13.568 79.2558 20.176C79.2558 24.544 78.7144 28.24 77.6318 31.264C76.5491 34.288 74.9624 36.584 72.8718 38.152C70.7811 39.72 68.2051 40.504 65.1438 40.504ZM65.1438 35.688C68.0184 35.688 70.1278 34.4373 71.4718 31.936C72.8531 29.3973 73.5438 25.4773 73.5438 20.176C73.5438 14.8373 72.8531 10.9547 71.4718 8.528C70.1278 6.064 68.0184 4.832 65.1438 4.832C62.3064 4.832 60.1971 6.064 58.8158 8.528C57.4344 10.9547 56.7438 14.8373 56.7438 20.176C56.7438 25.4773 57.4344 29.3973 58.8158 31.936C60.1971 34.4373 62.3064 35.688 65.1438 35.688Z" fill="black"/>
</svg>
