<svg width="114" height="41" viewBox="0 0 114 41" fill="none" xmlns="http://www.w3.org/2000/svg">
<path d="M21.728 40.504C19.04 40.504 16.632 39.9253 14.504 38.768C12.376 37.6107 10.6213 35.8933 9.24 33.616C7.896 31.3387 6.98133 28.576 6.496 25.328L7.336 26.616H2.856C2.296 26.616 1.81067 26.4293 1.4 26.056C0.989333 25.6453 0.784 25.1413 0.784 24.544C0.784 23.9467 0.989333 23.4613 1.4 23.088C1.81067 22.7147 2.296 22.528 2.856 22.528H7.112L6.272 23.592C6.16 22.472 6.104 21.3333 6.104 20.176C6.14133 18.9813 6.19733 17.88 6.272 16.872L7.168 17.936H2.856C2.296 17.936 1.81067 17.7493 1.4 17.376C0.989333 16.9653 0.784 16.48 0.784 15.92C0.784 15.3227 0.989333 14.8373 1.4 14.464C1.81067 14.0533 2.296 13.848 2.856 13.848H7.616L6.496 15.192C6.98133 11.9067 7.896 9.144 9.24 6.904C10.6213 4.62667 12.376 2.90933 14.504 1.752C16.632 0.594664 19.04 0.0159974 21.728 0.0159974C23.5947 0.0159974 25.3867 0.314665 27.104 0.911999C28.8213 1.472 30.3707 2.424 31.752 3.768C32.2 4.17867 32.48 4.62666 32.592 5.112C32.704 5.59733 32.6853 6.08267 32.536 6.568C32.3867 7.016 32.144 7.37067 31.808 7.632C31.472 7.89333 31.0613 8.024 30.576 8.024C30.0907 8.024 29.5867 7.8 29.064 7.352C28.1307 6.53067 27.0667 5.93333 25.872 5.56C24.6773 5.18667 23.4267 5 22.12 5C20.4773 5 18.984 5.35467 17.64 6.064C16.296 6.77333 15.176 7.87467 14.28 9.368C13.4213 10.8613 12.7867 12.728 12.376 14.968L11.368 13.848H19.768C20.3653 13.848 20.8507 14.0533 21.224 14.464C21.6347 14.8747 21.84 15.36 21.84 15.92C21.84 16.48 21.6347 16.9653 21.224 17.376C20.8507 17.7493 20.3653 17.936 19.768 17.936H10.976L12.096 16.928C11.984 17.824 11.928 18.8693 11.928 20.064C11.928 21.2587 11.984 22.3787 12.096 23.424L10.976 22.528H19.768C20.3653 22.528 20.8507 22.7333 21.224 23.144C21.6347 23.5173 21.84 23.984 21.84 24.544C21.84 25.104 21.6347 25.5893 21.224 26C20.8507 26.4107 20.3653 26.616 19.768 26.616H11.648L12.376 25.496C12.7867 27.736 13.4213 29.6213 14.28 31.152C15.176 32.6453 16.296 33.7467 17.64 34.456C18.984 35.1653 20.4773 35.52 22.12 35.52C23.464 35.52 24.696 35.352 25.816 35.016C26.936 34.6427 28.0373 34.0267 29.12 33.168C29.68 32.7573 30.184 32.552 30.632 32.552C31.1173 32.5147 31.528 32.6453 31.864 32.944C32.2 33.2053 32.424 33.56 32.536 34.008C32.6853 34.4187 32.704 34.8667 32.592 35.352C32.5173 35.8 32.256 36.2293 31.808 36.64C30.5387 37.984 29.008 38.9733 27.216 39.608C25.424 40.2053 23.5947 40.504 21.728 40.504ZM57.0238 40C56.2398 40 55.6238 39.776 55.1758 39.328C54.7278 38.88 54.5038 38.2827 54.5038 37.536C54.5038 36.752 54.7278 36.1547 55.1758 35.744C55.6238 35.3333 56.2398 35.128 57.0238 35.128H63.8558V5.336H66.7678L58.5918 10.544C57.9944 10.88 57.4344 11.0107 56.9118 10.936C56.4264 10.8613 55.9971 10.656 55.6238 10.32C55.2878 9.984 55.0451 9.57333 54.8958 9.088C54.7838 8.60267 54.8211 8.09867 55.0078 7.576C55.2318 7.05333 55.6238 6.624 56.1838 6.288L63.9118 1.416C64.5464 1.04266 65.1438 0.743997 65.7038 0.519998C66.3011 0.258665 66.8611 0.127999 67.3838 0.127999C68.0184 0.127999 68.5411 0.314666 68.9518 0.687999C69.3998 1.024 69.6238 1.60267 69.6238 2.424V35.128H75.8958C76.7171 35.128 77.3518 35.3333 77.7998 35.744C78.2478 36.1547 78.4718 36.752 78.4718 37.536C78.4718 38.32 78.2478 38.936 77.7998 39.384C77.3518 39.7947 76.7171 40 75.8958 40H57.0238ZM99.3379 40.504C97.2845 40.504 95.2125 40.224 93.1219 39.664C91.0312 39.0667 89.1272 38.152 87.4099 36.92C86.8499 36.584 86.4765 36.1547 86.2899 35.632C86.1032 35.1093 86.0659 34.6053 86.1779 34.12C86.2899 33.5973 86.5139 33.168 86.8499 32.832C87.2232 32.496 87.6712 32.3093 88.1939 32.272C88.7165 32.1973 89.2765 32.3467 89.8739 32.72C91.3299 33.6533 92.8232 34.3627 94.3539 34.848C95.9219 35.3333 97.5459 35.576 99.2259 35.576C100.943 35.576 102.418 35.2587 103.65 34.624C104.882 33.9893 105.815 33.112 106.45 31.992C107.122 30.8347 107.458 29.4907 107.458 27.96C107.458 25.608 106.767 23.6853 105.386 22.192C104.005 20.6987 102.082 19.952 99.6179 19.952C98.1992 19.952 96.8739 20.2133 95.6419 20.736C94.4099 21.2213 93.2339 22.0427 92.1139 23.2C91.8525 23.4987 91.4979 23.7787 91.0499 24.04C90.6392 24.264 90.1725 24.376 89.6499 24.376C88.8659 24.376 88.2685 24.1707 87.8579 23.76C87.4472 23.3493 87.2419 22.7893 87.2419 22.08V3.096C87.2419 2.27466 87.4659 1.64 87.9139 1.192C88.3619 0.743998 88.9965 0.519998 89.8179 0.519998H108.578C109.399 0.519998 110.034 0.725332 110.482 1.136C110.93 1.54667 111.154 2.144 111.154 2.928C111.154 3.712 110.93 4.328 110.482 4.776C110.034 5.18667 109.399 5.392 108.578 5.392H92.8979V19.616H91.3299C92.3379 18.1973 93.6632 17.096 95.3059 16.312C96.9859 15.528 98.8339 15.136 100.85 15.136C103.351 15.136 105.517 15.6587 107.346 16.704C109.175 17.7493 110.594 19.224 111.602 21.128C112.61 22.9947 113.114 25.1787 113.114 27.68C113.114 30.2187 112.554 32.4587 111.434 34.4C110.314 36.304 108.727 37.7973 106.674 38.88C104.621 39.9627 102.175 40.504 99.3379 40.504Z" fill="black"/>
</svg>
