<svg width="113" height="41" viewBox="0 0 113 41" fill="none" xmlns="http://www.w3.org/2000/svg">
<path d="M21.728 40.504C19.04 40.504 16.632 39.9253 14.504 38.768C12.376 37.6107 10.6213 35.8933 9.24 33.616C7.896 31.3387 6.98133 28.576 6.496 25.328L7.336 26.616H2.856C2.296 26.616 1.81067 26.4293 1.4 26.056C0.989333 25.6453 0.784 25.1413 0.784 24.544C0.784 23.9467 0.989333 23.4613 1.4 23.088C1.81067 22.7147 2.296 22.528 2.856 22.528H7.112L6.272 23.592C6.16 22.472 6.104 21.3333 6.104 20.176C6.14133 18.9813 6.19733 17.88 6.272 16.872L7.168 17.936H2.856C2.296 17.936 1.81067 17.7493 1.4 17.376C0.989333 16.9653 0.784 16.48 0.784 15.92C0.784 15.3227 0.989333 14.8373 1.4 14.464C1.81067 14.0533 2.296 13.848 2.856 13.848H7.616L6.496 15.192C6.98133 11.9067 7.896 9.144 9.24 6.904C10.6213 4.62667 12.376 2.90933 14.504 1.752C16.632 0.594664 19.04 0.0159974 21.728 0.0159974C23.5947 0.0159974 25.3867 0.314665 27.104 0.911999C28.8213 1.472 30.3707 2.424 31.752 3.768C32.2 4.17867 32.48 4.62666 32.592 5.112C32.704 5.59733 32.6853 6.08267 32.536 6.568C32.3867 7.016 32.144 7.37067 31.808 7.632C31.472 7.89333 31.0613 8.024 30.576 8.024C30.0907 8.024 29.5867 7.8 29.064 7.352C28.1307 6.53067 27.0667 5.93333 25.872 5.56C24.6773 5.18667 23.4267 5 22.12 5C20.4773 5 18.984 5.35467 17.64 6.064C16.296 6.77333 15.176 7.87467 14.28 9.368C13.4213 10.8613 12.7867 12.728 12.376 14.968L11.368 13.848H19.768C20.3653 13.848 20.8507 14.0533 21.224 14.464C21.6347 14.8747 21.84 15.36 21.84 15.92C21.84 16.48 21.6347 16.9653 21.224 17.376C20.8507 17.7493 20.3653 17.936 19.768 17.936H10.976L12.096 16.928C11.984 17.824 11.928 18.8693 11.928 20.064C11.928 21.2587 11.984 22.3787 12.096 23.424L10.976 22.528H19.768C20.3653 22.528 20.8507 22.7333 21.224 23.144C21.6347 23.5173 21.84 23.984 21.84 24.544C21.84 25.104 21.6347 25.5893 21.224 26C20.8507 26.4107 20.3653 26.616 19.768 26.616H11.648L12.376 25.496C12.7867 27.736 13.4213 29.6213 14.28 31.152C15.176 32.6453 16.296 33.7467 17.64 34.456C18.984 35.1653 20.4773 35.52 22.12 35.52C23.464 35.52 24.696 35.352 25.816 35.016C26.936 34.6427 28.0373 34.0267 29.12 33.168C29.68 32.7573 30.184 32.552 30.632 32.552C31.1173 32.5147 31.528 32.6453 31.864 32.944C32.2 33.2053 32.424 33.56 32.536 34.008C32.6853 34.4187 32.704 34.8667 32.592 35.352C32.5173 35.8 32.256 36.2293 31.808 36.64C30.5387 37.984 29.008 38.9733 27.216 39.608C25.424 40.2053 23.5947 40.504 21.728 40.504ZM57.0238 40C56.2398 40 55.6238 39.776 55.1758 39.328C54.7278 38.88 54.5038 38.2827 54.5038 37.536C54.5038 36.752 54.7278 36.1547 55.1758 35.744C55.6238 35.3333 56.2398 35.128 57.0238 35.128H63.8558V5.336H66.7678L58.5918 10.544C57.9944 10.88 57.4344 11.0107 56.9118 10.936C56.4264 10.8613 55.9971 10.656 55.6238 10.32C55.2878 9.984 55.0451 9.57333 54.8958 9.088C54.7838 8.60267 54.8211 8.09867 55.0078 7.576C55.2318 7.05333 55.6238 6.624 56.1838 6.288L63.9118 1.416C64.5464 1.04266 65.1438 0.743997 65.7038 0.519998C66.3011 0.258665 66.8611 0.127999 67.3838 0.127999C68.0184 0.127999 68.5411 0.314666 68.9518 0.687999C69.3998 1.024 69.6238 1.60267 69.6238 2.424V35.128H75.8958C76.7171 35.128 77.3518 35.3333 77.7998 35.744C78.2478 36.1547 78.4718 36.752 78.4718 37.536C78.4718 38.32 78.2478 38.936 77.7998 39.384C77.3518 39.7947 76.7171 40 75.8958 40H57.0238ZM98.7219 40.504C94.1299 40.504 90.6205 38.768 88.1939 35.296C85.8045 31.7867 84.6099 26.7653 84.6099 20.232C84.6099 15.7893 85.1512 12.0747 86.2339 9.088C87.3165 6.10133 88.9032 3.84266 90.9939 2.312C93.0845 0.781331 95.6605 0.0159974 98.7219 0.0159974C103.351 0.0159974 106.861 1.73333 109.25 5.168C111.639 8.56533 112.834 13.568 112.834 20.176C112.834 24.544 112.293 28.24 111.21 31.264C110.127 34.288 108.541 36.584 106.45 38.152C104.359 39.72 101.783 40.504 98.7219 40.504ZM98.7219 35.688C101.597 35.688 103.706 34.4373 105.05 31.936C106.431 29.3973 107.122 25.4773 107.122 20.176C107.122 14.8373 106.431 10.9547 105.05 8.528C103.706 6.064 101.597 4.832 98.7219 4.832C95.8845 4.832 93.7752 6.064 92.3939 8.528C91.0125 10.9547 90.3219 14.8373 90.3219 20.176C90.3219 25.4773 91.0125 29.3973 92.3939 31.936C93.7752 34.4373 95.8845 35.688 98.7219 35.688Z" fill="black"/>
</svg>
