<svg width="12" height="12" viewBox="0 0 12 12" fill="none" xmlns="http://www.w3.org/2000/svg">
<path d="M3 2.35368L1.92678 3.4269C1.82915 3.52453 1.67085 3.52453 1.57322 3.4269C1.47559 3.32927 1.47559 3.17098 1.57322 3.07335L3.07322 1.57335C3.17085 1.47571 3.32915 1.47571 3.42678 1.57335L4.92678 3.07335C5.02441 3.17098 5.02441 3.32927 4.92678 3.4269C4.82915 3.52453 4.67085 3.52453 4.57322 3.4269L3.5 2.35368V9.64657L4.57322 8.57335C4.67085 8.47571 4.82915 8.47571 4.92678 8.57335C5.02441 8.67098 5.02441 8.82927 4.92678 8.9269L3.42678 10.4269C3.32915 10.5245 3.17085 10.5245 3.07322 10.4269L1.57322 8.9269C1.47559 8.82927 1.47559 8.67098 1.57322 8.57335C1.67085 8.47571 1.82915 8.47571 1.92678 8.57335L3 9.64657V2.35368ZM9.25 1.50012C9.94036 1.50012 10.5 2.05977 10.5 2.75012V9.25012C10.5 9.94048 9.94036 10.5001 9.25 10.5001H7.75C7.05964 10.5001 6.5 9.94048 6.5 9.25012V2.75012C6.5 2.05977 7.05964 1.50012 7.75 1.50012H9.25ZM9.25 2.00012H7.75C7.33579 2.00012 7 2.33591 7 2.75012V9.25012C7 9.66434 7.33579 10.0001 7.75 10.0001H9.25C9.66421 10.0001 10 9.66434 10 9.25012V2.75012C10 2.33591 9.66421 2.00012 9.25 2.00012Z" fill="#646464"/>
</svg>
