<svg width="12" height="8" viewBox="0 0 12 8" fill="none" xmlns="http://www.w3.org/2000/svg">
<path d="M11.4375 3.25C11.3672 3.13281 10.6732 2.83305 10.6732 2.83305C10.7939 2.7707 10.8764 2.75781 10.8764 2.5C10.8764 2.21875 10.875 2.125 10.6875 2.125H10.0514C10.0488 2.11937 10.046 2.11352 10.0434 2.10766C9.63281 1.21094 9.57773 0.984297 8.96531 0.679141C8.14383 0.270625 6.60375 0.25 6 0.25C5.39625 0.25 3.85617 0.270625 3.03539 0.679141C2.42227 0.983828 2.4375 1.14062 1.95727 2.10766C1.95727 2.11023 1.95234 2.11703 1.94789 2.125H1.31109C1.125 2.125 1.12359 2.21875 1.12359 2.5C1.12359 2.75781 1.20609 2.7707 1.3268 2.83305C1.3268 2.83305 0.65625 3.15625 0.5625 3.25C0.46875 3.34375 0.375 4 0.375 5.125C0.375 6.25 0.46875 7.375 0.46875 7.375H0.748594C0.748594 7.70312 0.796875 7.75 0.9375 7.75H2.8125C2.95312 7.75 3 7.70312 3 7.375H9C9 7.70312 9.04688 7.75 9.1875 7.75H11.1094C11.2031 7.75 11.25 7.67969 11.25 7.375H11.5312C11.5312 7.375 11.625 6.22656 11.625 5.125C11.625 4.02344 11.5078 3.36719 11.4375 3.25ZM2.93578 4.30328C2.50892 4.34995 2.07987 4.37389 1.65047 4.375C1.17187 4.375 1.15547 4.4057 1.12172 4.10687C1.10902 3.9701 1.11304 3.83229 1.13367 3.69648L1.14844 3.625H1.21875C1.5 3.625 1.76414 3.63695 2.26289 3.78391C2.51656 3.86002 2.75515 3.97944 2.96812 4.13687C3.07031 4.21094 3.09375 4.28125 3.09375 4.28125L2.93578 4.30328ZM8.72859 5.99078L8.625 6.25H3.375C3.375 6.25 3.38414 6.2357 3.25781 5.98797C3.16406 5.80469 3.28125 5.6875 3.46664 5.62094C3.8257 5.49156 4.875 5.125 6 5.125C7.125 5.125 8.19516 5.44094 8.54297 5.62094C8.67188 5.6875 8.83195 5.73438 8.72859 5.99219V5.99078ZM2.70516 2.79086C2.62945 2.79523 2.55357 2.79578 2.47781 2.7925C2.53898 2.68375 2.57297 2.56258 2.63273 2.43602C2.82023 2.03758 3.03469 1.58664 3.41648 1.39656C3.9682 1.12187 5.11172 0.998125 6 0.998125C6.88828 0.998125 8.0318 1.12094 8.58352 1.39656C8.96531 1.58664 9.17883 2.03781 9.36727 2.43602C9.4275 2.56375 9.46102 2.68586 9.52383 2.79531C9.47695 2.79789 9.42305 2.79531 9.29437 2.79086H2.70516ZM10.8548 4.10594C10.8047 4.39844 10.8516 4.375 10.3495 4.375C9.92013 4.37389 9.49108 4.34995 9.06422 4.30328C8.99742 4.29133 8.97844 4.17859 9.03187 4.13687C9.24377 3.97769 9.48269 3.85811 9.73711 3.78391C10.2359 3.63695 10.5166 3.61727 10.7939 3.62711C10.8125 3.62782 10.8302 3.63539 10.8436 3.64838C10.857 3.66136 10.8651 3.67883 10.8663 3.69742C10.8796 3.83385 10.8757 3.9714 10.8548 4.10687V4.10594Z" fill="#646464"/>
</svg>
