<svg width="12" height="12" viewBox="0 0 12 12" fill="none" xmlns="http://www.w3.org/2000/svg">
<path d="M10.2187 2.03101H5.71875C5.65244 2.03101 5.58885 2.00467 5.54197 1.95778C5.49509 1.9109 5.46875 1.84731 5.46875 1.78101C5.46875 1.7147 5.49509 1.65111 5.54197 1.60423C5.58885 1.55734 5.65244 1.53101 5.71875 1.53101H10.2187C10.2851 1.53101 10.3486 1.55734 10.3955 1.60423C10.4424 1.65111 10.4687 1.7147 10.4687 1.78101C10.4687 1.84731 10.4424 1.9109 10.3955 1.95778C10.3486 2.00467 10.2851 2.03101 10.2187 2.03101ZM10.2187 4.84301H5.71875C5.65244 4.84301 5.58885 4.81667 5.54197 4.76978C5.49509 4.7229 5.46875 4.65931 5.46875 4.59301C5.46875 4.5267 5.49509 4.46311 5.54197 4.41623C5.58885 4.36935 5.65244 4.34301 5.71875 4.34301H10.2187C10.2851 4.34301 10.3486 4.36935 10.3955 4.41623C10.4424 4.46311 10.4687 4.5267 10.4687 4.59301C10.4687 4.65931 10.4424 4.7229 10.3955 4.76978C10.3486 4.81667 10.2851 4.84301 10.2187 4.84301ZM10.2187 7.65501H5.71875C5.65244 7.65501 5.58885 7.62867 5.54197 7.58178C5.49509 7.5349 5.46875 7.47131 5.46875 7.40501C5.46875 7.3387 5.49509 7.27511 5.54197 7.22823C5.58885 7.18134 5.65244 7.15501 5.71875 7.15501H10.2187C10.2851 7.15501 10.3486 7.18134 10.3955 7.22823C10.4424 7.27511 10.4687 7.3387 10.4687 7.40501C10.4687 7.47131 10.4424 7.5349 10.3955 7.58178C10.3486 7.62867 10.2851 7.65501 10.2187 7.65501ZM10.2187 10.467H5.71875C5.65244 10.467 5.58885 10.4407 5.54197 10.3938C5.49509 10.3469 5.46875 10.2833 5.46875 10.217C5.46875 10.1507 5.49509 10.0871 5.54197 10.0402C5.58885 9.99334 5.65244 9.96701 5.71875 9.96701H10.2187C10.2851 9.96701 10.3486 9.99334 10.3955 10.0402C10.4424 10.0871 10.4687 10.1507 10.4687 10.217C10.4687 10.2833 10.4424 10.3469 10.3955 10.3938C10.3486 10.4407 10.2851 10.467 10.2187 10.467ZM1.60325 9.40001C1.55617 9.35293 1.52972 9.28908 1.52972 9.22251C1.52972 9.15593 1.55617 9.09208 1.60325 9.04501C1.65032 8.99793 1.71417 8.97148 1.78075 8.97148C1.84732 8.97148 1.91117 8.99793 1.95825 9.04501L2.52825 9.61501V2.38751L1.95825 2.95751C1.91049 3.00328 1.8469 3.02884 1.78075 3.02884C1.71459 3.02884 1.651 3.00328 1.60325 2.95751C1.57981 2.93427 1.56122 2.90661 1.54852 2.87615C1.53583 2.84569 1.5293 2.81301 1.5293 2.78001C1.5293 2.747 1.53583 2.71433 1.54852 2.68386C1.56122 2.6534 1.57981 2.62575 1.60325 2.60251L2.60325 1.60251C2.64879 1.55817 2.70968 1.5331 2.77325 1.53251C2.84147 1.53204 2.90742 1.55699 2.95825 1.60251L3.95825 2.60251C4.0028 2.65088 4.02753 2.71424 4.02753 2.78001C4.02753 2.84577 4.0028 2.90913 3.95825 2.95751C3.93501 2.98094 3.90736 2.99954 3.87689 3.01223C3.84643 3.02492 3.81375 3.03146 3.78075 3.03146C3.74774 3.03146 3.71507 3.02492 3.6846 3.01223C3.65414 2.99954 3.62649 2.98094 3.60325 2.95751L3.02825 2.38251V9.61751L3.60325 9.04251C3.62656 9.0192 3.65423 9.00071 3.68468 8.98809C3.71514 8.97548 3.74778 8.96898 3.78075 8.96898C3.81371 8.96898 3.84635 8.97548 3.87681 8.98809C3.90726 9.00071 3.93494 9.0192 3.95825 9.04251C3.98156 9.06581 4.00005 9.09349 4.01266 9.12394C4.02528 9.1544 4.03177 9.18704 4.03177 9.22001C4.03177 9.25297 4.02528 9.28561 4.01266 9.31607C4.00005 9.34652 3.98156 9.3742 3.95825 9.39751L2.95825 10.3975C2.91049 10.4433 2.8469 10.4688 2.78075 10.4688C2.71459 10.4688 2.651 10.4433 2.60325 10.3975L1.60325 9.40001Z" fill="#646464"/>
</svg>
