<svg width="26" height="26" viewBox="0 0 26 26" fill="none" xmlns="http://www.w3.org/2000/svg">
<circle cx="13" cy="13" r="13" fill="#00C489"/>
<path d="M15.2665 11.5867L12.2065 8.52668C12.0816 8.40252 11.9127 8.33282 11.7365 8.33282C11.5604 8.33282 11.3914 8.40252 11.2665 8.52668C11.204 8.58866 11.1545 8.66239 11.1206 8.74363C11.0868 8.82487 11.0693 8.91201 11.0693 9.00002C11.0693 9.08802 11.0868 9.17516 11.1206 9.2564C11.1545 9.33764 11.204 9.41137 11.2665 9.47335L14.3332 12.5267C14.3957 12.5887 14.4453 12.6624 14.4791 12.7436C14.513 12.8249 14.5304 12.912 14.5304 13C14.5304 13.088 14.513 13.1752 14.4791 13.2564C14.4453 13.3376 14.3957 13.4114 14.3332 13.4734L11.2665 16.5267C11.141 16.6513 11.0701 16.8208 11.0695 16.9977C11.0689 17.1746 11.1386 17.3445 11.2632 17.47C11.3879 17.5956 11.5573 17.6664 11.7342 17.6671C11.9111 17.6677 12.081 17.598 12.2065 17.4734L15.2665 14.4134C15.6411 14.0383 15.8514 13.53 15.8514 13C15.8514 12.47 15.6411 11.9617 15.2665 11.5867Z" fill="white"/>
</svg>
