<svg width="6" height="4" viewBox="0 0 6 4" fill="none" xmlns="http://www.w3.org/2000/svg">
<path d="M5.79584 0.420834C5.7571 0.38178 5.71102 0.350782 5.66025 0.329629C5.60947 0.308475 5.55501 0.297585 5.50001 0.297585C5.445 0.297585 5.39054 0.308475 5.33977 0.329629C5.28899 0.350782 5.24291 0.38178 5.20417 0.420834L3.29584 2.32916C3.2571 2.36822 3.21102 2.39921 3.16025 2.42037C3.10947 2.44152 3.05501 2.45241 3.00001 2.45241C2.945 2.45241 2.89054 2.44152 2.83976 2.42037C2.78899 2.39921 2.74291 2.36822 2.70417 2.32916L0.795838 0.420834C0.757104 0.38178 0.71102 0.350782 0.660245 0.329629C0.60947 0.308475 0.55501 0.297585 0.500005 0.297585C0.445 0.297585 0.390539 0.308475 0.339764 0.329629C0.28899 0.350782 0.242906 0.38178 0.204171 0.420834C0.126567 0.498901 0.0830078 0.604506 0.0830078 0.714583C0.0830078 0.82466 0.126567 0.930265 0.204171 1.00833L2.11667 2.92083C2.35105 3.15491 2.66875 3.28639 3.00001 3.28639C3.33126 3.28639 3.64896 3.15491 3.88334 2.92083L5.79584 1.00833C5.87344 0.930265 5.917 0.82466 5.917 0.714583C5.917 0.604506 5.87344 0.498901 5.79584 0.420834Z" fill="#aaaaaa"/>
</svg>
