<svg width="11" height="11" viewBox="0 0 11 11" fill="none" xmlns="http://www.w3.org/2000/svg">
<path d="M6.39525 0.695323L5.61959 4.77066L8.42958 4.78012L4.60467 10.3049L5.38034 5.82132L2.57053 5.81153L6.39525 0.695323ZM6.39578 0.00783398C6.37722 0.00783398 6.35866 0.00851074 6.34045 0.009875C6.2191 0.0196826 6.13865 0.0602451 6.04327 0.124354C5.98957 0.160162 5.94114 0.203322 5.89941 0.252573C5.88688 0.267355 5.87506 0.282727 5.864 0.298636L2.01176 5.39696C1.85965 5.60545 1.83731 5.88063 1.95419 6.1106C2.07089 6.34057 2.30687 6.48632 2.56554 6.48821L4.55001 6.50265L3.92611 10.1785C3.86681 10.4944 4.03525 10.8093 4.33173 10.9362C4.41789 10.9732 4.5107 10.9923 4.60449 10.9922C4.82053 10.9922 4.99808 10.8911 5.13129 10.7086L8.98834 5.18384C9.14045 4.97534 9.16263 4.69983 9.04592 4.4702C8.92922 4.24023 8.69323 4.09447 8.43456 4.09259L6.45009 4.08916L7.0673 0.857047C7.08038 0.804132 7.08696 0.74982 7.0869 0.695312C7.0869 0.323375 6.79075 0.0201875 6.42019 0.00815625C6.41195 0.0078125 6.40386 0.0078125 6.39579 0.0078125L6.39578 0.00783398Z" fill="#646464"/>
</svg>
