<svg width="40" height="40" viewBox="0 0 40 40" fill="none" xmlns="http://www.w3.org/2000/svg">
<g clip-path="url(#clip0_368_1348)">
<path d="M39.4683 5.445C39.1558 5.13255 38.7319 4.95702 38.29 4.95702C37.8481 4.95702 37.4242 5.13255 37.1117 5.445L32.155 10.4C31.8424 10.7125 31.6668 11.1363 31.6667 11.5783V30C31.6667 30.442 31.4911 30.866 31.1785 31.1785C30.866 31.4911 30.442 31.6667 30 31.6667H26.6667V8.33333C26.664 6.12401 25.7852 4.00593 24.223 2.4437C22.6607 0.88147 20.5427 0.00264643 18.3333 0L8.33333 0C6.12401 0.00264643 4.00593 0.88147 2.4437 2.4437C0.88147 4.00593 0.00264643 6.12401 0 8.33333L0 31.6667C0.00264643 33.876 0.88147 35.9941 2.4437 37.5563C4.00593 39.1185 6.12401 39.9974 8.33333 40H18.3333C19.9529 39.9979 21.5368 39.5238 22.8913 38.6358C24.2458 37.7478 25.3122 36.4844 25.96 35H30C31.3261 35 32.5979 34.4732 33.5355 33.5355C34.4732 32.5979 35 31.3261 35 30V12.2683L39.4683 7.80167C39.7808 7.48912 39.9563 7.06527 39.9563 6.62333C39.9563 6.18139 39.7808 5.75755 39.4683 5.445ZM8.33333 3.33333H18.3333C19.6594 3.33333 20.9312 3.86012 21.8689 4.7978C22.8066 5.73548 23.3333 7.00725 23.3333 8.33333V15H20C19.9935 13.4048 19.4104 11.8658 18.3583 10.6667L19.5117 9.51167C19.6709 9.35792 19.7978 9.17401 19.8852 8.97067C19.9725 8.76733 20.0185 8.54863 20.0204 8.32734C20.0223 8.10604 19.9802 7.88657 19.8964 7.68174C19.8126 7.47692 19.6888 7.29083 19.5323 7.13434C19.3758 6.97785 19.1898 6.8541 18.9849 6.7703C18.7801 6.6865 18.5606 6.64433 18.3393 6.64625C18.118 6.64817 17.8993 6.69415 17.696 6.7815C17.4927 6.86885 17.3087 6.99582 17.155 7.155L15.565 8.745C14.5615 8.37299 13.4826 8.25046 12.4212 8.38798C11.3599 8.52549 10.3478 8.91892 9.47228 9.53439C8.59672 10.1499 7.88387 10.9689 7.39513 11.921C6.90638 12.8732 6.65639 13.9298 6.66667 15H3.33333V8.33333C3.33333 7.00725 3.86012 5.73548 4.7978 4.7978C5.73548 3.86012 7.00725 3.33333 8.33333 3.33333ZM10 15C10 14.1159 10.3512 13.2681 10.9763 12.643C11.6014 12.0179 12.4493 11.6667 13.3333 11.6667C14.2174 11.6667 15.0652 12.0179 15.6904 12.643C16.3155 13.2681 16.6667 14.1159 16.6667 15H10ZM18.3333 36.6667H8.33333C7.00725 36.6667 5.73548 36.1399 4.7978 35.2022C3.86012 34.2645 3.33333 32.9927 3.33333 31.6667V18.3333H23.3333V31.6667C23.3333 32.9927 22.8066 34.2645 21.8689 35.2022C20.9312 36.1399 19.6594 36.6667 18.3333 36.6667Z" fill="#646464"/>
</g>
<defs>
<clipPath id="clip0_368_1348">
<rect width="40" height="40" fill="white"/>
</clipPath>
</defs>
</svg>
