<svg width="11" height="11" viewBox="0 0 11 11" fill="none" xmlns="http://www.w3.org/2000/svg">
<path fill-rule="evenodd" clip-rule="evenodd" d="M4.24532 6.75473C4.40993 6.91969 4.60552 7.0505 4.82084 7.13965C5.03617 7.2288 5.26698 7.27453 5.50003 7.27422C5.97693 7.27422 6.42403 7.08473 6.75473 6.75473C6.91969 6.59012 7.0505 6.39453 7.13965 6.17921C7.2288 5.96389 7.27453 5.73307 7.27422 5.50003C7.27422 5.02312 7.08473 4.57603 6.75473 4.24532C6.59012 4.08036 6.39453 3.94955 6.17921 3.8604C5.96389 3.77125 5.73307 3.72552 5.50003 3.72583C5.02312 3.72583 4.57603 3.91532 4.24532 4.24532C4.08036 4.40993 3.94955 4.60552 3.8604 4.82084C3.77125 5.03617 3.72552 5.26698 3.72583 5.50003C3.72583 5.97693 3.91532 6.42403 4.24532 6.75473ZM6.25299 6.25299C6.05428 6.4517 5.78674 6.56454 5.50003 6.56454C5.21332 6.56454 4.94648 6.45099 4.74777 6.25228C4.54906 6.05357 4.43551 5.78744 4.43551 5.50003C4.43551 5.21261 4.54906 4.94648 4.74777 4.74777C4.94648 4.54906 5.21332 4.43551 5.50003 4.43551C5.78674 4.43551 6.05357 4.54906 6.25228 4.74777C6.45099 4.94648 6.56454 5.21332 6.56454 5.50003C6.56454 5.78674 6.45099 6.05357 6.25228 6.25228L6.25299 6.25299Z" fill="#646464"/>
<path fill-rule="evenodd" clip-rule="evenodd" d="M8.492 1.08084L7.59071 1.58755C7.32715 1.44623 7.04989 1.3321 6.76323 1.2469L6.42968 0.243419C6.40627 0.172658 6.36119 0.111063 6.30081 0.06737C6.24043 0.0236773 6.16782 0.000106081 6.09329 0H4.8329C4.75555 6.65589e-05 4.68033 0.0254098 4.61871 0.072171C4.55709 0.118932 4.51243 0.184549 4.49155 0.259032L4.21336 1.25471C3.92701 1.34136 3.65023 1.45692 3.38729 1.59961L2.44129 1.12484C2.37459 1.09142 2.29904 1.07988 2.22541 1.09186C2.15177 1.10384 2.08378 1.13872 2.0311 1.19155L1.13903 2.0829C1.08426 2.13769 1.04891 2.2089 1.03841 2.28566C1.0279 2.36242 1.0428 2.44051 1.08084 2.508L1.58755 3.40929C1.44632 3.67187 1.33206 3.94865 1.2469 4.23677L0.243419 4.57032C0.172658 4.59372 0.111063 4.63881 0.06737 4.69919C0.0236773 4.75957 0.000106081 4.83218 0 4.90671V6.16781C6.65589e-05 6.24516 0.0254098 6.32038 0.072171 6.382C0.118932 6.44362 0.184549 6.48828 0.259032 6.50916L1.25471 6.78735C1.34129 7.07477 1.45697 7.35084 1.59961 7.61342L1.12484 8.55942C1.09142 8.62612 1.07988 8.70166 1.09186 8.7753C1.10384 8.84894 1.13872 8.91693 1.19155 8.96961L2.0829 9.86097C2.13769 9.91574 2.2089 9.95109 2.28566 9.96159C2.36242 9.9721 2.44051 9.9572 2.508 9.91916L3.40929 9.41245C3.67187 9.55368 3.94865 9.66794 4.23677 9.7531L4.57032 10.7566C4.59372 10.8273 4.63881 10.8889 4.69919 10.9326C4.75957 10.9763 4.83218 10.9999 4.90671 11H6.16781C6.24516 10.9999 6.32038 10.9746 6.382 10.9278C6.44362 10.8811 6.48828 10.8155 6.50916 10.741L6.78735 9.74529C7.0737 9.65866 7.35048 9.54309 7.61342 9.40039L8.55942 9.87516C8.62605 9.90866 8.70155 9.92032 8.77519 9.90847C8.84882 9.89662 8.91685 9.86188 8.96961 9.80916L9.86097 8.9171C9.91574 8.86231 9.95109 8.7911 9.96159 8.71434C9.9721 8.63758 9.9572 8.55949 9.91916 8.492L9.41245 7.59071C9.55368 7.32813 9.66794 7.05135 9.7531 6.76323L10.7566 6.42968C10.8273 6.40627 10.8889 6.36119 10.9326 6.30081C10.9763 6.24043 10.9999 6.16782 11 6.09329V4.8329C10.9999 4.75555 10.9746 4.68033 10.9278 4.61871C10.8811 4.55709 10.8155 4.51243 10.741 4.49155L9.74529 4.21336C9.65867 3.927 9.5431 3.65022 9.40039 3.38729L9.87516 2.44129C9.90866 2.37466 9.92032 2.29916 9.90847 2.22552C9.89662 2.15189 9.86188 2.08386 9.80916 2.0311L8.9171 1.13974C8.86231 1.08496 8.7911 1.04962 8.71434 1.03912C8.63758 1.02861 8.55949 1.0428 8.492 1.08084ZM7.76529 2.30432L8.60555 1.83097L9.12574 2.35116L8.68077 3.23826C8.65399 3.29178 8.64118 3.35122 8.64354 3.41102C8.6459 3.47083 8.66334 3.52907 8.69426 3.58032C8.88232 3.89258 9.02355 4.23181 9.11297 4.58665C9.12816 4.64735 9.15914 4.70296 9.20277 4.74783C9.24639 4.79269 9.3011 4.82523 9.36135 4.84213L10.2903 5.10187V5.83781L9.34858 6.15006C9.29173 6.1689 9.24058 6.20181 9.19988 6.24573C9.15918 6.28966 9.13025 6.34317 9.11581 6.40129C9.0279 6.75585 8.888 7.09544 8.70065 7.40903C8.66848 7.4627 8.65108 7.52393 8.6502 7.58649C8.64933 7.64906 8.66502 7.71074 8.69568 7.76529L9.16903 8.60555L8.64884 9.12574L7.76174 8.68077C7.70822 8.65399 7.64878 8.64118 7.58898 8.64354C7.52917 8.6459 7.47093 8.66334 7.41968 8.69426C7.10742 8.88232 6.76819 9.02355 6.41335 9.11297C6.35265 9.12816 6.29704 9.15914 6.25217 9.20277C6.20731 9.24639 6.17477 9.3011 6.15787 9.36135L5.89813 10.2903H5.1629L4.85065 9.34858C4.83175 9.29165 4.79873 9.24044 4.75467 9.19973C4.71061 9.15902 4.65695 9.13015 4.59871 9.11581C4.24415 9.02789 3.90456 8.88799 3.59097 8.70065C3.5373 8.66848 3.47607 8.65108 3.41351 8.6502C3.35094 8.64933 3.28926 8.66502 3.23471 8.69568L2.39445 9.16903L1.87426 8.64884L2.31923 7.76174C2.34601 7.70822 2.35882 7.64878 2.35646 7.58898C2.3541 7.52917 2.33666 7.47093 2.30574 7.41968C2.11728 7.10673 1.97618 6.76762 1.88703 6.41335C1.87184 6.35265 1.84086 6.29704 1.79723 6.25217C1.75361 6.20731 1.6989 6.17477 1.63865 6.15787L0.709677 5.89813V5.1629L1.65142 4.85065C1.70822 4.83165 1.75929 4.79858 1.79986 4.75453C1.84044 4.71048 1.86921 4.65688 1.88348 4.59871C1.97219 4.24387 2.11271 3.90394 2.29935 3.59097C2.33152 3.5373 2.34892 3.47607 2.34979 3.41351C2.35067 3.35094 2.33498 3.28926 2.30432 3.23471L1.83097 2.39445L2.35116 1.87426L3.23826 2.31923C3.29178 2.34601 3.35122 2.35882 3.41102 2.35646C3.47083 2.3541 3.52907 2.33666 3.58032 2.30574C3.89258 2.11768 4.23181 1.97645 4.58665 1.88703C4.64735 1.87184 4.70296 1.84086 4.74783 1.79723C4.79269 1.75361 4.82523 1.6989 4.84213 1.63865L5.10187 0.709677H5.83781L6.15006 1.65142C6.169 1.70813 6.20195 1.75915 6.24587 1.79972C6.28979 1.84029 6.34325 1.8691 6.40129 1.88348C6.75613 1.97219 7.09606 2.11271 7.40903 2.29935C7.4627 2.33152 7.52393 2.34892 7.58649 2.34979C7.64906 2.35067 7.71074 2.33498 7.76529 2.30432Z" fill="#646464"/>
</svg>
