<svg width="12" height="12" viewBox="0 0 12 12" fill="none" xmlns="http://www.w3.org/2000/svg">
<path d="M9.96875 10.2195L9.96875 5.71948C9.96875 5.65317 9.99509 5.58959 10.042 5.5427C10.0889 5.49582 10.1524 5.46948 10.2187 5.46948C10.2851 5.46948 10.3486 5.49582 10.3955 5.5427C10.4424 5.58959 10.4687 5.65317 10.4687 5.71948L10.4687 10.2195C10.4687 10.2858 10.4424 10.3494 10.3955 10.3963C10.3486 10.4431 10.2851 10.4695 10.2187 10.4695C10.1524 10.4695 10.0889 10.4431 10.042 10.3963C9.99509 10.3494 9.96875 10.2858 9.96875 10.2195ZM7.15675 10.2195L7.15675 5.71948C7.15675 5.65317 7.18309 5.58959 7.22997 5.5427C7.27686 5.49582 7.34045 5.46948 7.40675 5.46948C7.47305 5.46948 7.53664 5.49582 7.58353 5.5427C7.63041 5.58959 7.65675 5.65317 7.65675 5.71948L7.65675 10.2195C7.65675 10.2858 7.63041 10.3494 7.58353 10.3963C7.53664 10.4431 7.47305 10.4695 7.40675 10.4695C7.34045 10.4695 7.27686 10.4431 7.22997 10.3963C7.18309 10.3494 7.15675 10.2858 7.15675 10.2195ZM4.34475 10.2195L4.34475 5.71948C4.34475 5.65317 4.37109 5.58959 4.41797 5.5427C4.46486 5.49582 4.52845 5.46948 4.59475 5.46948C4.66105 5.46948 4.72464 5.49582 4.77153 5.5427C4.81841 5.58959 4.84475 5.65317 4.84475 5.71948L4.84475 10.2195C4.84475 10.2858 4.81841 10.3494 4.77153 10.3963C4.72464 10.4431 4.66105 10.4695 4.59475 10.4695C4.52845 10.4695 4.46486 10.4431 4.41797 10.3963C4.37109 10.3494 4.34475 10.2858 4.34475 10.2195ZM1.53275 10.2195L1.53275 5.71948C1.53275 5.65317 1.55909 5.58959 1.60597 5.5427C1.65286 5.49582 1.71645 5.46948 1.78275 5.46948C1.84905 5.46948 1.91264 5.49582 1.95953 5.5427C2.00641 5.58959 2.03275 5.65317 2.03275 5.71948L2.03275 10.2195C2.03275 10.2858 2.00641 10.3494 1.95953 10.3963C1.91264 10.4431 1.84905 10.4695 1.78275 10.4695C1.71645 10.4695 1.65286 10.4431 1.60597 10.3963C1.55909 10.3494 1.53275 10.2858 1.53275 10.2195ZM2.59975 1.60398C2.64683 1.5569 2.71067 1.53046 2.77725 1.53046C2.84383 1.53046 2.90767 1.5569 2.95475 1.60398C3.00183 1.65105 3.02827 1.7149 3.02827 1.78148C3.02827 1.84805 3.00183 1.9119 2.95475 1.95898L2.38475 2.52898L9.61225 2.52898L9.04225 1.95898C8.99647 1.91122 8.97091 1.84763 8.97091 1.78148C8.97091 1.71533 8.99647 1.65173 9.04225 1.60398C9.06549 1.58055 9.09314 1.56195 9.12361 1.54926C9.15407 1.53656 9.18675 1.53003 9.21975 1.53003C9.25275 1.53003 9.28543 1.53656 9.31589 1.54926C9.34636 1.56195 9.37401 1.58055 9.39725 1.60398L10.3973 2.60398C10.4416 2.64953 10.4667 2.71042 10.4672 2.77398C10.4677 2.8422 10.4428 2.90815 10.3972 2.95898L9.39725 3.95898C9.34888 4.00353 9.28552 4.02827 9.21975 4.02827C9.15398 4.02827 9.09062 4.00353 9.04225 3.95898C9.01882 3.93574 9.00022 3.90809 8.98753 3.87762C8.97483 3.84716 8.9683 3.81448 8.9683 3.78148C8.9683 3.74848 8.97483 3.7158 8.98753 3.68533C9.00022 3.65487 9.01882 3.62722 9.04225 3.60398L9.61725 3.02898L2.38225 3.02898L2.95725 3.60398C2.98056 3.62729 2.99905 3.65496 3.01167 3.68542C3.02428 3.71587 3.03077 3.74851 3.03077 3.78148C3.03077 3.81444 3.02428 3.84709 3.01167 3.87754C2.99905 3.908 2.98056 3.93567 2.95725 3.95898C2.93394 3.98229 2.90627 4.00078 2.87581 4.01339C2.84536 4.02601 2.81271 4.0325 2.77975 4.0325C2.74679 4.0325 2.71414 4.02601 2.68369 4.01339C2.65323 4.00078 2.62556 3.98229 2.60225 3.95898L1.60225 2.95898C1.55647 2.91122 1.53092 2.84763 1.53092 2.78148C1.53092 2.71533 1.55647 2.65173 1.60225 2.60398L2.59975 1.60398Z" fill="#646464"/>
</svg>
