<svg width="26" height="26" viewBox="0 0 26 26" fill="none" xmlns="http://www.w3.org/2000/svg">
<circle cx="13" cy="13" r="13" fill="#0000FF"/>
<path d="M15.2675 11.5867L12.2075 8.52668C12.0826 8.40251 11.9136 8.33282 11.7375 8.33282C11.5614 8.33282 11.3924 8.40251 11.2675 8.52668C11.205 8.58865 11.1554 8.66239 11.1216 8.74363C11.0877 8.82487 11.0703 8.912 11.0703 9.00001C11.0703 9.08802 11.0877 9.17516 11.1216 9.2564C11.1554 9.33764 11.205 9.41137 11.2675 9.47335L14.3342 12.5267C14.3967 12.5887 14.4463 12.6624 14.4801 12.7436C14.514 12.8249 14.5314 12.912 14.5314 13C14.5314 13.088 14.514 13.1752 14.4801 13.2564C14.4463 13.3376 14.3967 13.4114 14.3342 13.4733L11.2675 16.5267C11.142 16.6513 11.0711 16.8207 11.0705 16.9977C11.0698 17.1746 11.1395 17.3445 11.2642 17.47C11.3888 17.5955 11.5582 17.6664 11.7352 17.6671C11.9121 17.6677 12.082 17.598 12.2075 17.4733L15.2675 14.4133C15.642 14.0383 15.8524 13.53 15.8524 13C15.8524 12.47 15.642 11.9617 15.2675 11.5867Z" fill="white"/>
</svg>
