<svg width="48" height="42" viewBox="0 0 48 42" fill="none" xmlns="http://www.w3.org/2000/svg">
<path d="M45.546 15.4428C44.6082 14.362 43.4491 13.4953 42.1472 12.9015C40.8453 12.3076 39.4309 12.0005 38 12.0008H30.022L30.694 7.91875C30.9318 6.48128 30.6449 5.00623 29.8857 3.76263C29.1265 2.51904 27.9456 1.58978 26.5584 1.14434C25.1711 0.698896 23.67 0.766957 22.3288 1.33611C20.9875 1.90525 19.8955 2.93757 19.252 4.24475L15.424 12.0008H10C7.34881 12.0039 4.80712 13.0585 2.93244 14.9332C1.05776 16.8079 0.00317572 19.3496 0 22.0008L0 32.0008C0.00317572 34.6519 1.05776 37.1936 2.93244 39.0683C4.80712 40.943 7.34881 41.9976 10 42.0008H36.6C39.0069 41.9909 41.3304 41.1174 43.1476 39.5391C44.9648 37.9608 46.1552 35.7826 46.502 33.4008L47.912 23.4008C48.1106 21.9822 48.0021 20.5376 47.5939 19.1646C47.1857 17.7916 46.4873 16.5224 45.546 15.4428ZM4 32.0008V22.0008C4 20.4095 4.63214 18.8833 5.75736 17.7581C6.88258 16.6329 8.4087 16.0008 10 16.0008H14V38.0008H10C8.4087 38.0008 6.88258 37.3686 5.75736 36.2434C4.63214 35.1182 4 33.5921 4 32.0008ZM43.942 22.8388L42.53 32.8388C42.3236 34.2667 41.6115 35.5732 40.5232 36.5205C39.4349 37.4678 38.0428 37.9931 36.6 38.0008H18V15.4688C18.1885 15.3045 18.3445 15.1065 18.46 14.8848L22.838 6.01475C23.0022 5.71861 23.2343 5.46566 23.5153 5.27668C23.7962 5.0877 24.118 4.96808 24.4542 4.92767C24.7904 4.88726 25.1314 4.9272 25.4491 5.04421C25.7669 5.16122 26.0523 5.35196 26.282 5.60075C26.4785 5.82925 26.6221 6.09829 26.7027 6.38869C26.7832 6.67909 26.7987 6.98369 26.748 7.28075L25.692 13.6808C25.6456 13.9667 25.662 14.2593 25.7398 14.5384C25.8177 14.8174 25.9553 15.0762 26.143 15.2968C26.3307 15.5174 26.5642 15.6947 26.8271 15.8162C27.0901 15.9378 27.3763 16.0007 27.666 16.0008H38C38.8588 16.0006 39.7076 16.1849 40.4891 16.541C41.2706 16.8972 41.9665 17.417 42.5298 18.0652C43.0931 18.7135 43.5107 19.4751 43.7543 20.2986C43.9979 21.1221 44.0619 21.9884 43.942 22.8388Z" fill="#0000FF"/>
</svg>
