<svg width="11" height="11" viewBox="0 0 11 11" fill="none" xmlns="http://www.w3.org/2000/svg">
<path d="M7.79175 4.58337C8.55114 4.58337 9.16675 3.96777 9.16675 3.20837C9.16675 2.44898 8.55114 1.83337 7.79175 1.83337C7.03236 1.83337 6.41675 2.44898 6.41675 3.20837C6.41675 3.96777 7.03236 4.58337 7.79175 4.58337Z" stroke="#646464" stroke-linecap="round" stroke-linejoin="round"/>
<path d="M3.20837 9.16675C3.96777 9.16675 4.58337 8.55114 4.58337 7.79175C4.58337 7.03236 3.96777 6.41675 3.20837 6.41675C2.44898 6.41675 1.83337 7.03236 1.83337 7.79175C1.83337 8.55114 2.44898 9.16675 3.20837 9.16675Z" stroke="#646464" stroke-linecap="round" stroke-linejoin="round"/>
<path d="M6.41671 6.41671H9.16671V8.70837C9.16671 8.82993 9.11842 8.94651 9.03247 9.03247C8.94651 9.11842 8.82993 9.16671 8.70837 9.16671H6.87504C6.75348 9.16671 6.6369 9.11842 6.55095 9.03247C6.465 8.94651 6.41671 8.82993 6.41671 8.70837V6.41671ZM1.83337 1.83337H4.58337V4.12504C4.58337 4.2466 4.53509 4.36318 4.44913 4.44913C4.36318 4.53509 4.2466 4.58337 4.12504 4.58337H2.29171C2.17015 4.58337 2.05357 4.53509 1.96762 4.44913C1.88166 4.36318 1.83337 4.2466 1.83337 4.12504V1.83337Z" stroke="#646464" stroke-linecap="round" stroke-linejoin="round"/>
</svg>
