<svg width="40" height="40" viewBox="0 0 40 40" fill="none" xmlns="http://www.w3.org/2000/svg">
<g clip-path="url(#clip0_310_23169)">
<path d="M21.666 5V1.66667C21.666 1.22464 21.4904 0.800716 21.1779 0.488155C20.8653 0.175595 20.4414 0 19.9993 0C19.5573 0 19.1334 0.175595 18.8208 0.488155C18.5083 0.800716 18.3327 1.22464 18.3327 1.66667V5C15.2396 5.00353 12.2742 6.23383 10.087 8.42099C7.89984 10.6081 6.66954 13.5736 6.66602 16.6667V26.6667C6.66602 30.2029 8.07077 33.5943 10.5713 36.0948C13.0717 38.5952 16.4631 40 19.9993 40C23.5356 40 26.927 38.5952 29.4274 36.0948C31.9279 33.5943 33.3327 30.2029 33.3327 26.6667V16.6667C33.3292 13.5736 32.0989 10.6081 29.9117 8.42099C27.7245 6.23383 24.7591 5.00353 21.666 5V5ZM29.9993 26.6667C29.9993 29.3188 28.9458 31.8624 27.0704 33.7377C25.1951 35.6131 22.6515 36.6667 19.9993 36.6667C17.3472 36.6667 14.8036 35.6131 12.9283 33.7377C11.0529 31.8624 9.99935 29.3188 9.99935 26.6667V16.6667C10.002 14.4573 10.8808 12.3393 12.443 10.777C14.0053 9.2148 16.1234 8.33598 18.3327 8.33333H21.666C23.8753 8.33598 25.9934 9.2148 27.5557 10.777C29.1179 12.3393 29.9967 14.4573 29.9993 16.6667V26.6667Z" fill="#0000FF"/>
<path d="M20.0007 11.6672C19.5586 11.6672 19.1347 11.8428 18.8221 12.1554C18.5096 12.468 18.334 12.8919 18.334 13.3339V16.6672C18.334 17.1093 18.5096 17.5332 18.8221 17.8457C19.1347 18.1583 19.5586 18.3339 20.0007 18.3339C20.4427 18.3339 20.8666 18.1583 21.1792 17.8457C21.4917 17.5332 21.6673 17.1093 21.6673 16.6672V13.3339C21.6673 12.8919 21.4917 12.468 21.1792 12.1554C20.8666 11.8428 20.4427 11.6672 20.0007 11.6672Z" fill="#0000FF"/>
</g>
<defs>
<clipPath id="clip0_310_23169">
<rect width="40" height="40" fill="white"/>
</clipPath>
</defs>
</svg>
