<svg width="40" height="40" viewBox="0 0 40 40" fill="none" xmlns="http://www.w3.org/2000/svg">
<g clip-path="url(#clip0_66_145)">
<path d="M21.667 5V1.66667C21.667 1.22464 21.4914 0.800716 21.1788 0.488155C20.8663 0.175595 20.4424 0 20.0003 0C19.5583 0 19.1344 0.175595 18.8218 0.488155C18.5093 0.800716 18.3337 1.22464 18.3337 1.66667V5C15.2405 5.00353 12.2751 6.23383 10.088 8.42099C7.90082 10.6081 6.67052 13.5736 6.66699 16.6667V26.6667C6.66699 30.2029 8.07175 33.5943 10.5722 36.0948C13.0727 38.5952 16.4641 40 20.0003 40C23.5365 40 26.9279 38.5952 29.4284 36.0948C31.9289 33.5943 33.3337 30.2029 33.3337 26.6667V16.6667C33.3301 13.5736 32.0998 10.6081 29.9127 8.42099C27.7255 6.23383 24.7601 5.00353 21.667 5V5ZM30.0003 26.6667C30.0003 29.3188 28.9468 31.8624 27.0714 33.7377C25.196 35.6131 22.6525 36.6667 20.0003 36.6667C17.3482 36.6667 14.8046 35.6131 12.9293 33.7377C11.0539 31.8624 10.0003 29.3188 10.0003 26.6667V16.6667C10.003 14.4573 10.8818 12.3393 12.444 10.777C14.0063 9.2148 16.1243 8.33598 18.3337 8.33333H21.667C23.8763 8.33598 25.9944 9.2148 27.5566 10.777C29.1189 12.3393 29.9977 14.4573 30.0003 16.6667V26.6667Z" fill="#00C489"/>
<path d="M20.0002 11.6672C19.5581 11.6672 19.1342 11.8428 18.8217 12.1554C18.5091 12.468 18.3335 12.8919 18.3335 13.3339V16.6672C18.3335 17.1093 18.5091 17.5332 18.8217 17.8457C19.1342 18.1583 19.5581 18.3339 20.0002 18.3339C20.4422 18.3339 20.8661 18.1583 21.1787 17.8457C21.4913 17.5332 21.6668 17.1093 21.6668 16.6672V13.3339C21.6668 12.8919 21.4913 12.468 21.1787 12.1554C20.8661 11.8428 20.4422 11.6672 20.0002 11.6672Z" fill="#00C489"/>
</g>
<defs>
<clipPath id="clip0_66_145">
<rect width="40" height="40" fill="white"/>
</clipPath>
</defs>
</svg>
