<svg width="12" height="12" viewBox="0 0 12 12" fill="none" xmlns="http://www.w3.org/2000/svg">
<path d="M6.55015 9.50003C6.45126 9.49962 6.35472 9.46989 6.27273 9.41461C6.19074 9.35933 6.12698 9.28097 6.08952 9.18946C6.05205 9.09794 6.04257 8.99737 6.06226 8.90046C6.08195 8.80356 6.12994 8.71467 6.20015 8.64503L8.50015 6.35503C8.54702 6.30855 8.58422 6.25325 8.6096 6.19232C8.63499 6.13139 8.64805 6.06604 8.64805 6.00003C8.64805 5.93402 8.63499 5.86867 8.6096 5.80774C8.58422 5.74681 8.54702 5.69151 8.50015 5.64503L6.20015 3.35503C6.15329 3.30855 6.11609 3.25325 6.0907 3.19232C6.06532 3.13139 6.05225 3.06604 6.05225 3.00003C6.05225 2.93402 6.06532 2.86867 6.0907 2.80774C6.11609 2.74681 6.15329 2.69151 6.20015 2.64503C6.29383 2.5519 6.42056 2.49963 6.55265 2.49963C6.68474 2.49963 6.81147 2.5519 6.90515 2.64503L9.20016 4.94003C9.48106 5.22128 9.63884 5.60253 9.63884 6.00003C9.63884 6.39753 9.48106 6.77878 9.20016 7.06003L6.90515 9.35503C6.85843 9.40137 6.80302 9.43803 6.7421 9.46292C6.68119 9.4878 6.61595 9.50041 6.55015 9.50003Z" fill="black"/>
<path d="M3.04991 9.50003C2.95102 9.49962 2.85448 9.46989 2.77248 9.41461C2.69049 9.35933 2.62673 9.28097 2.58927 9.18946C2.55181 9.09794 2.54232 8.99737 2.56202 8.90046C2.58171 8.80356 2.62969 8.71467 2.69991 8.64503L5.34491 6.00003L2.69991 3.35503C2.65304 3.30855 2.61584 3.25325 2.59046 3.19232C2.56508 3.13139 2.55201 3.06604 2.55201 3.00003C2.55201 2.93402 2.56508 2.86867 2.59046 2.80774C2.61584 2.74681 2.65304 2.69151 2.69991 2.64503C2.79359 2.5519 2.92031 2.49963 3.05241 2.49963C3.1845 2.49963 3.31122 2.5519 3.40491 2.64503L6.40491 5.64503C6.45177 5.69151 6.48897 5.74681 6.51435 5.80774C6.53974 5.86867 6.5528 5.93402 6.5528 6.00003C6.5528 6.06604 6.53974 6.13139 6.51435 6.19232C6.48897 6.25325 6.45177 6.30855 6.40491 6.35503L3.40491 9.35503C3.35819 9.40137 3.30278 9.43803 3.24186 9.46292C3.18094 9.4878 3.11571 9.50041 3.04991 9.50003Z" fill="black"/>
</svg>
