<svg width="5" height="8" viewBox="0 0 5 8" fill="none" xmlns="http://www.w3.org/2000/svg">
<path d="M3.6999 2.94003L1.4049 0.64503C1.31122 0.551905 1.18449 0.499634 1.0524 0.499634C0.920308 0.499634 0.793582 0.551905 0.699901 0.64503C0.653037 0.691512 0.61584 0.746812 0.590456 0.807742C0.565071 0.868671 0.552002 0.934024 0.552002 1.00003C0.552002 1.06604 0.565071 1.13139 0.590456 1.19232C0.61584 1.25325 0.653037 1.30855 0.699901 1.35503L2.9999 3.64503C3.04677 3.69151 3.08396 3.74681 3.10935 3.80774C3.13473 3.86867 3.1478 3.93402 3.1478 4.00003C3.1478 4.06604 3.13473 4.13139 3.10935 4.19232C3.08396 4.25325 3.04677 4.30855 2.9999 4.35503L0.699901 6.64503C0.605749 6.73852 0.552592 6.86558 0.552123 6.99826C0.551654 7.13094 0.603913 7.25838 0.697402 7.35253C0.79089 7.44668 0.917951 7.49984 1.05063 7.50031C1.18332 7.50078 1.31075 7.44852 1.4049 7.35503L3.6999 5.06003C3.9808 4.77878 4.13858 4.39753 4.13858 4.00003C4.13858 3.60253 3.9808 3.22128 3.6999 2.94003Z" fill="black"/>
</svg>
