<svg width="40" height="40" viewBox="0 0 40 40" fill="none" xmlns="http://www.w3.org/2000/svg">
<g clip-path="url(#clip0_368_1345)">
<path d="M39.8335 19.062C39.1786 14.021 36.6288 9.41851 32.7024 6.19002C28.7759 2.96153 23.7674 1.3493 18.6949 1.68103C13.6224 2.01276 8.8666 4.26355 5.39406 7.97591C1.92151 11.6883 -0.00713373 16.5836 0.000123423 21.667C-0.00948391 24.3878 0.541887 27.0814 1.61981 29.5797C2.69774 32.0779 4.27909 34.3272 6.26512 36.1869C7.78402 37.5932 9.78538 38.3618 11.8551 38.3336H28.1335C30.3201 38.3387 32.4209 37.4832 33.9818 35.9519C36.2063 33.7877 37.894 31.1333 38.91 28.2007C39.926 25.2681 40.2422 22.1385 39.8335 19.062ZM31.6518 33.5619C30.7141 34.4858 29.4498 35.0027 28.1335 35.0003H11.8551C10.6372 35.0253 9.45595 34.5834 8.55346 33.7653C6.89891 32.2155 5.58149 30.3413 4.68338 28.2598C3.78527 26.1782 3.32574 23.934 3.33346 21.667C3.3351 19.3207 3.83141 17.0011 4.79002 14.8596C5.74863 12.7181 7.14798 10.8028 8.89679 9.23862C11.9354 6.49846 15.8852 4.98757 19.9768 5.00028C20.6306 5.00056 21.2838 5.03728 21.9335 5.11028C25.0595 5.47334 28.0187 6.71455 30.4683 8.69015C32.918 10.6658 34.7579 13.2949 35.7748 16.2731C36.7918 19.2513 36.9443 22.4566 36.2146 25.5179C35.4849 28.5792 33.9029 31.3711 31.6518 33.5703V33.5619ZM13.0118 28.8086C13.3278 29.118 13.508 29.5403 13.5127 29.9826C13.5174 30.4249 13.3462 30.8509 13.0368 31.1669C12.7274 31.483 12.3051 31.6632 11.8628 31.6679C11.4205 31.6726 10.9945 31.5014 10.6785 31.1919C8.78672 29.3389 7.48961 26.9645 6.95247 24.3715C6.41533 21.7785 6.66248 19.0842 7.66243 16.6321C8.66238 14.1801 10.3698 12.0814 12.5671 10.6034C14.7644 9.12548 17.352 8.33531 20.0001 8.33362C20.6375 8.33343 21.2741 8.37855 21.9051 8.46862C22.1218 8.49986 22.3303 8.57349 22.5185 8.68531C22.7067 8.79713 22.8711 8.94494 23.0022 9.1203C23.1333 9.29567 23.2285 9.49514 23.2825 9.70733C23.3365 9.91952 23.3482 10.1403 23.3168 10.3569C23.2881 10.5748 23.2161 10.7848 23.1051 10.9744C22.994 11.1641 22.8462 11.3296 22.6703 11.4613C22.4943 11.593 22.2938 11.6882 22.0806 11.7412C21.8673 11.7943 21.6456 11.8042 21.4285 11.7703C19.3426 11.4724 17.2159 11.8409 15.3519 12.8233C13.488 13.8057 11.9819 15.3518 11.0487 17.2409C10.1155 19.13 9.80289 21.2656 10.1554 23.3429C10.5079 25.4202 11.5076 27.3331 13.0118 28.8086ZM33.1985 19.7619C33.2885 20.393 33.3336 21.0296 33.3335 21.667C33.3389 23.4431 32.9863 25.2021 32.2967 26.8389C31.6072 28.4757 30.5948 29.9568 29.3201 31.1936C29.0036 31.503 28.5772 31.6741 28.1346 31.6691C27.692 31.6641 27.2695 31.4834 26.9601 31.1669C26.6507 30.8505 26.4797 30.424 26.4847 29.9814C26.4897 29.5388 26.6703 29.1164 26.9868 28.8069C28.1129 27.7093 28.9633 26.3608 29.4685 24.8716C29.9736 23.3824 30.1193 21.7949 29.8935 20.2386C29.8302 19.8008 29.9436 19.3558 30.2084 19.0015C30.4733 18.6472 30.8681 18.4127 31.306 18.3494C31.7438 18.2862 32.1888 18.3995 32.5431 18.6644C32.8974 18.9293 33.1319 19.3241 33.1951 19.7619H33.1985ZM23.2101 20.8136C23.4107 21.5349 23.3668 22.3022 23.0852 22.9959C22.8036 23.6895 22.3002 24.2704 21.6536 24.6478C21.0071 25.0251 20.2538 25.1778 19.5113 25.0818C18.7689 24.9858 18.0791 24.6467 17.5497 24.1173C17.0204 23.588 16.6812 22.8982 16.5853 22.1558C16.4893 21.4133 16.6419 20.66 17.0193 20.0134C17.3967 19.3669 17.9775 18.8635 18.6712 18.5819C19.3648 18.3003 20.1322 18.2564 20.8535 18.4569L27.1551 12.1553C27.3089 11.9961 27.4928 11.8691 27.6961 11.7818C27.8995 11.6944 28.1182 11.6485 28.3395 11.6465C28.5608 11.6446 28.7802 11.6868 28.985 11.7706C29.1899 11.8544 29.376 11.9781 29.5324 12.1346C29.6889 12.2911 29.8127 12.4772 29.8965 12.682C29.9803 12.8869 30.0225 13.1063 30.0205 13.3276C30.0186 13.5489 29.9726 13.7676 29.8853 13.971C29.7979 14.1743 29.671 14.3582 29.5118 14.5119L23.2101 20.8136Z" fill="#646464"/>
</g>
<defs>
<clipPath id="clip0_368_1345">
<rect width="40" height="40" fill="white"/>
</clipPath>
</defs>
</svg>
